{
  "accessors": [
    {
      "bufferView": 2,
      "componentType": 5126,
      "count": 520,
      "max": [
        0.6816280484199524,
        0.6816282868385315,
        0.9867333173751831
      ],
      "min": [
        -0.6816282868385315,
        -0.6816280484199524,
        -0.9867333173751831
      ],
      "type": "VEC3"
    },
    {
      "bufferView": 2,
      "byteOffset": 6240,
      "componentType": 5126,
      "count": 520,
      "max": [
        0.9620116949081421,
        0.9620115160942078,
        1.0
      ],
      "min": [
        -0.9620115160942078,
        -0.9620116353034973,
        -1.0
      ],
      "type": "VEC3"
    },
    {
      "bufferView": 1,
      "componentType": 5126,
      "count": 520,
      "max": [
        0.9932752251625061,
        0.87676602602005
      ],
      "min": [
        0.020623385906219482,
        0.018748581409454346
      ],
      "type": "VEC2"
    },
    {
      "bufferView": 1,
      "byteOffset": 4160,
      "componentType": 5126,
      "count": 520,
      "max": [
        0.8457432985305786,
        1.0
      ],
      "min": [
        0.0,
        -6.5249330383210236e-09
      ],
      "type": "VEC2"
    },
    {
      "bufferView": 0,
      "componentType": 5125,
      "count": 780,
      "type": "SCALAR"
    },
    {
      "bufferView": 2,
      "byteOffset": 12480,
      "componentType": 5126,
      "count": 520,
      "max": [
        0.6816280484199524,
        0.6816282868385315,
        0.9867333173751831
      ],
      "min": [
        -0.6816282868385315,
        -0.6816280484199524,
        -0.9867333173751831
      ],
      "type": "VEC3"
    },
    {
      "bufferView": 2,
      "byteOffset": 18720,
      "componentType": 5126,
      "count": 520,
      "max": [
        0.9620116949081421,
        0.9620115160942078,
        1.0
      ],
      "min": [
        -0.9620115160942078,
        -0.9620116353034973,
        -1.0
      ],
      "type": "VEC3"
    },
    {
      "bufferView": 1,
      "byteOffset": 8320,
      "componentType": 5126,
      "count": 520,
      "max": [
        0.9932752251625061,
        0.87676602602005
      ],
      "min": [
        0.020623385906219482,
        0.018748581409454346
      ],
      "type": "VEC2"
    },
    {
      "bufferView": 1,
      "byteOffset": 12480,
      "componentType": 5126,
      "count": 520,
      "max": [
        0.8457432985305786,
        1.0
      ],
      "min": [
        0.0,
        -6.5249330383210236e-09
      ],
      "type": "VEC2"
    },
    {
      "bufferView": 0,
      "byteOffset": 3120,
      "componentType": 5125,
      "count": 780,
      "type": "SCALAR"
    },
    {
      "bufferView": 2,
      "byteOffset": 24960,
      "componentType": 5126,
      "count": 336,
      "max": [
        0.6879748702049255,
        0.6879748702049255,
        0.6164072751998901
      ],
      "min": [
        -0.6879748702049255,
        -0.6879748702049255,
        -0.6164072751998901
      ],
      "type": "VEC3"
    },
    {
      "bufferView": 2,
      "byteOffset": 28992,
      "componentType": 5126,
      "count": 336,
      "max": [
        0.95264732837677,
        0.9526472687721252,
        1.0
      ],
      "min": [
        -0.95264732837677,
        -0.95264732837677,
        -1.0
      ],
      "type": "VEC3"
    },
    {
      "bufferView": 1,
      "byteOffset": 16640,
      "componentType": 5126,
      "count": 336,
      "max": [
        0.7446469664573669,
        0.9719723463058472
      ],
      "min": [
        0.3425585925579071,
        0.6615434885025024
      ],
      "type": "VEC2"
    },
    {
      "bufferView": 1,
      "byteOffset": 19328,
      "componentType": 5126,
      "count": 336,
      "max": [
        1.0,
        0.9856674075126648
      ],
      "min": [
        -6.8435905831165655e-09,
        1.903580404416516e-09
      ],
      "type": "VEC2"
    },
    {
      "bufferView": 0,
      "byteOffset": 6240,
      "componentType": 5125,
      "count": 552,
      "type": "SCALAR"
    },
    {
      "bufferView": 2,
      "byteOffset": 33024,
      "componentType": 5126,
      "count": 330,
      "max": [
        0.5506205558776855,
        0.550620436668396,
        1.0117548704147339
      ],
      "min": [
        -0.550620436668396,
        -0.5506205558776855,
        -1.0117548704147339
      ],
      "type": "VEC3"
    },
    {
      "bufferView": 2,
      "byteOffset": 36984,
      "componentType": 5126,
      "count": 330,
      "max": [
        0.9657977819442749,
        0.9657977819442749,
        1.0
      ],
      "min": [
        -0.9657977819442749,
        -0.9657977819442749,
        -1.0
      ],
      "type": "VEC3"
    },
    {
      "bufferView": 1,
      "byteOffset": 22016,
      "componentType": 5126,
      "count": 330,
      "max": [
        0.41577520966529846,
        0.9960672855377197
      ],
      "min": [
        0.16746430099010468,
        0.6545857191085815
      ],
      "type": "VEC2"
    },
    {
      "bufferView": 1,
      "byteOffset": 24656,
      "componentType": 5126,
      "count": 330,
      "max": [
        0.9999999403953552,
        0.8667435050010681
      ],
      "min": [
        -9.231901465511783e-09,
        -2.4611262361418085e-08
      ],
      "type": "VEC2"
    },
    {
      "bufferView": 0,
      "byteOffset": 8448,
      "componentType": 5125,
      "count": 552,
      "type": "SCALAR"
    },
    {
      "bufferView": 2,
      "byteOffset": 40944,
      "componentType": 5126,
      "count": 72,
      "max": [
        -2.2164387702941895,
        0.9605136513710022,
        22.014190673828125
      ],
      "min": [
        -3.9895708560943604,
        -1.0869226455688477,
        18.08601951599121
      ],
      "type": "VEC3"
    },
    {
      "bufferView": 2,
      "byteOffset": 41808,
      "componentType": 5126,
      "count": 72,
      "max": [
        0.9966598153114319,
        0.8776445984840393,
        0.8473718166351318
      ],
      "min": [
        -0.9966598153114319,
        -0.8631327152252197,
        -1.0
      ],
      "type": "VEC3"
    },
    {
      "bufferView": 1,
      "byteOffset": 27296,
      "componentType": 5126,
      "count": 72,
      "max": [
        0.140751913189888,
        0.8256272077560425
      ],
      "min": [
        0.015834234654903412,
        0.6404409408569336
      ],
      "type": "VEC2"
    },
    {
      "bufferView": 1,
      "byteOffset": 27872,
      "componentType": 5126,
      "count": 72,
      "max": [
        0.9711129069328308,
        1.0000001192092896
      ],
      "min": [
        7.46642037086076e-09,
        -2.1095532432013897e-08
      ],
      "type": "VEC2"
    },
    {
      "bufferView": 0,
      "byteOffset": 10656,
      "componentType": 5125,
      "count": 102,
      "type": "SCALAR"
    },
    {
      "bufferView": 2,
      "byteOffset": 42672,
      "componentType": 5126,
      "count": 56,
      "max": [
        -4.953729152679443,
        7.829521656036377,
        -16.404876708984375
      ],
      "min": [
        -8.579717636108398,
        -7.507533073425293,
        -21.124135971069336
      ],
      "type": "VEC3"
    },
    {
      "bufferView": 2,
      "byteOffset": 43344,
      "componentType": 5126,
      "count": 56,
      "max": [
        0.7057573795318604,
        0.7084542512893677,
        5.300724410517432e-07
      ],
      "min": [
        -0.7057585120201111,
        -0.708453893661499,
        -0.5964921712875366
      ],
      "type": "VEC3"
    },
    {
      "bufferView": 1,
      "byteOffset": 28448,
      "componentType": 5126,
      "count": 56,
      "max": [
        0.9696903824806213,
        0.9974597096443176
      ],
      "min": [
        0.9485278725624084,
        0.9761568307876587
      ],
      "type": "VEC2"
    },
    {
      "bufferView": 1,
      "byteOffset": 28896,
      "componentType": 5126,
      "count": 56,
      "max": [
        0.0,
        0.0
      ],
      "min": [
        0.0,
        0.0
      ],
      "type": "VEC2"
    },
    {
      "bufferView": 0,
      "byteOffset": 11064,
      "componentType": 5125,
      "count": 72,
      "type": "SCALAR"
    },
    {
      "bufferView": 2,
      "byteOffset": 44016,
      "componentType": 5126,
      "count": 192,
      "max": [
        16.469959259033203,
        23.389925003051758,
        23.443523406982422
      ],
      "min": [
        -16.469959259033203,
        -21.831069946289063,
        -23.443523406982422
      ],
      "type": "VEC3"
    },
    {
      "bufferView": 2,
      "byteOffset": 46320,
      "componentType": 5126,
      "count": 192,
      "max": [
        0.7412179708480835,
        0.7363835573196411,
        0.7367310523986816
      ],
      "min": [
        -0.7412179708480835,
        -0.7363835573196411,
        -0.7367310523986816
      ],
      "type": "VEC3"
    },
    {
      "bufferView": 1,
      "byteOffset": 29344,
      "componentType": 5126,
      "count": 192,
      "max": [
        0.9974460601806641,
        0.9975635409355164
      ],
      "min": [
        0.948369026184082,
        0.9750458598136902
      ],
      "type": "VEC2"
    },
    {
      "bufferView": 1,
      "byteOffset": 30880,
      "componentType": 5126,
      "count": 192,
      "max": [
        0.0,
        0.0
      ],
      "min": [
        0.0,
        0.0
      ],
      "type": "VEC2"
    },
    {
      "bufferView": 0,
      "byteOffset": 11352,
      "componentType": 5125,
      "count": 192,
      "type": "SCALAR"
    },
    {
      "bufferView": 2,
      "byteOffset": 48624,
      "componentType": 5126,
      "count": 30,
      "max": [
        -0.053637776523828506,
        0.15737861394882202,
        0.9176551103591919
      ],
      "min": [
        -0.15723817050457,
        0.051089830696582794,
        0.8968163728713989
      ],
      "type": "VEC3"
    },
    {
      "bufferView": 2,
      "byteOffset": 48984,
      "componentType": 5126,
      "count": 30,
      "max": [
        0.8541626930236816,
        0.8211278319358826,
        0.9998399019241333
      ],
      "min": [
        -0.837815523147583,
        -0.8284270763397217,
        0.4859675168991089
      ],
      "type": "VEC3"
    },
    {
      "bufferView": 1,
      "byteOffset": 32416,
      "componentType": 5126,
      "count": 30,
      "max": [
        0.8022986650466919,
        0.797088086605072
      ],
      "min": [
        0.7218595743179321,
        0.7030608057975769
      ],
      "type": "VEC2"
    },
    {
      "bufferView": 1,
      "byteOffset": 32656,
      "componentType": 5126,
      "count": 30,
      "max": [
        0.7303707003593445,
        0.0907297134399414
      ],
      "min": [
        0.7035324573516846,
        0.06691818684339523
      ],
      "type": "VEC2"
    },
    {
      "bufferView": 0,
      "byteOffset": 12120,
      "componentType": 5125,
      "count": 48,
      "type": "SCALAR"
    },
    {
      "bufferView": 2,
      "byteOffset": 49344,
      "componentType": 5126,
      "count": 288,
      "max": [
        29.056581497192383,
        18.46640968322754,
        18.580236434936523
      ],
      "min": [
        -29.056581497192383,
        -18.46640968322754,
        -18.580236434936523
      ],
      "type": "VEC3"
    },
    {
      "bufferView": 2,
      "byteOffset": 52800,
      "componentType": 5126,
      "count": 288,
      "max": [
        0.8343257904052734,
        0.7835681438446045,
        0.7307333946228027
      ],
      "min": [
        -0.8343257904052734,
        -0.7835685014724731,
        -0.7307337522506714
      ],
      "type": "VEC3"
    },
    {
      "bufferView": 1,
      "byteOffset": 32896,
      "componentType": 5126,
      "count": 288,
      "max": [
        0.9968035221099854,
        0.9964881539344788
      ],
      "min": [
        0.9502606391906738,
        0.9757989048957825
      ],
      "type": "VEC2"
    },
    {
      "bufferView": 1,
      "byteOffset": 35200,
      "componentType": 5126,
      "count": 288,
      "max": [
        0.0,
        0.0
      ],
      "min": [
        0.0,
        0.0
      ],
      "type": "VEC2"
    },
    {
      "bufferView": 0,
      "byteOffset": 12312,
      "componentType": 5125,
      "count": 288,
      "type": "SCALAR"
    },
    {
      "bufferView": 2,
      "byteOffset": 56256,
      "componentType": 5126,
      "count": 192,
      "max": [
        16.469959259033203,
        23.389925003051758,
        23.443523406982422
      ],
      "min": [
        -16.469959259033203,
        -23.389925003051758,
        -23.443523406982422
      ],
      "type": "VEC3"
    },
    {
      "bufferView": 2,
      "byteOffset": 58560,
      "componentType": 5126,
      "count": 192,
      "max": [
        0.7412179708480835,
        0.7363835573196411,
        0.7367310523986816
      ],
      "min": [
        -0.7412179708480835,
        -0.7363835573196411,
        -0.7367310523986816
      ],
      "type": "VEC3"
    },
    {
      "bufferView": 1,
      "byteOffset": 37504,
      "componentType": 5126,
      "count": 192,
      "max": [
        0.9974460601806641,
        0.9975635409355164
      ],
      "min": [
        0.948369026184082,
        0.9750458598136902
      ],
      "type": "VEC2"
    },
    {
      "bufferView": 1,
      "byteOffset": 39040,
      "componentType": 5126,
      "count": 192,
      "max": [
        0.0,
        0.0
      ],
      "min": [
        0.0,
        0.0
      ],
      "type": "VEC2"
    },
    {
      "bufferView": 0,
      "byteOffset": 13464,
      "componentType": 5125,
      "count": 192,
      "type": "SCALAR"
    },
    {
      "bufferView": 2,
      "byteOffset": 60864,
      "componentType": 5126,
      "count": 192,
      "max": [
        32.804630279541016,
        15.929600715637207,
        15.912805557250977
      ],
      "min": [
        -32.804630279541016,
        -15.929600715637207,
        -15.912805557250977
      ],
      "type": "VEC3"
    },
    {
      "bufferView": 2,
      "byteOffset": 63168,
      "componentType": 5126,
      "count": 192,
      "max": [
        0.40807032585144043,
        0.9898038506507874,
        0.9937258362770081
      ],
      "min": [
        -0.40807032585144043,
        -0.9898038506507874,
        -0.9937258362770081
      ],
      "type": "VEC3"
    },
    {
      "bufferView": 1,
      "byteOffset": 40576,
      "componentType": 5126,
      "count": 192,
      "max": [
        0.9968035221099854,
        0.9964881539344788
      ],
      "min": [
        0.9502279162406921,
        0.9757989048957825
      ],
      "type": "VEC2"
    },
    {
      "bufferView": 1,
      "byteOffset": 42112,
      "componentType": 5126,
      "count": 192,
      "max": [
        0.0,
        0.0
      ],
      "min": [
        0.0,
        0.0
      ],
      "type": "VEC2"
    },
    {
      "bufferView": 0,
      "byteOffset": 14232,
      "componentType": 5125,
      "count": 192,
      "type": "SCALAR"
    },
    {
      "bufferView": 2,
      "byteOffset": 65472,
      "componentType": 5126,
      "count": 72,
      "max": [
        -2.2164387702941895,
        0.9605136513710022,
        22.014190673828125
      ],
      "min": [
        -3.9895708560943604,
        -1.0869226455688477,
        18.08601951599121
      ],
      "type": "VEC3"
    },
    {
      "bufferView": 2,
      "byteOffset": 66336,
      "componentType": 5126,
      "count": 72,
      "max": [
        0.9966598153114319,
        0.8776445984840393,
        0.8473718166351318
      ],
      "min": [
        -0.9966598153114319,
        -0.8631327152252197,
        -1.0
      ],
      "type": "VEC3"
    },
    {
      "bufferView": 1,
      "byteOffset": 43648,
      "componentType": 5126,
      "count": 72,
      "max": [
        0.140751913189888,
        0.8256272077560425
      ],
      "min": [
        0.015834234654903412,
        0.6404409408569336
      ],
      "type": "VEC2"
    },
    {
      "bufferView": 1,
      "byteOffset": 44224,
      "componentType": 5126,
      "count": 72,
      "max": [
        0.9711129069328308,
        1.0000001192092896
      ],
      "min": [
        7.46642037086076e-09,
        -2.1095532432013897e-08
      ],
      "type": "VEC2"
    },
    {
      "bufferView": 0,
      "byteOffset": 15000,
      "componentType": 5125,
      "count": 102,
      "type": "SCALAR"
    },
    {
      "bufferView": 2,
      "byteOffset": 67200,
      "componentType": 5126,
      "count": 330,
      "max": [
        0.5506205558776855,
        0.550620436668396,
        1.0117548704147339
      ],
      "min": [
        -0.550620436668396,
        -0.5506205558776855,
        -1.0117548704147339
      ],
      "type": "VEC3"
    },
    {
      "bufferView": 2,
      "byteOffset": 71160,
      "componentType": 5126,
      "count": 330,
      "max": [
        0.9657977819442749,
        0.9657977819442749,
        1.0
      ],
      "min": [
        -0.9657977819442749,
        -0.9657977819442749,
        -1.0
      ],
      "type": "VEC3"
    },
    {
      "bufferView": 1,
      "byteOffset": 44800,
      "componentType": 5126,
      "count": 330,
      "max": [
        0.41577520966529846,
        0.9960672855377197
      ],
      "min": [
        0.16746430099010468,
        0.6545857191085815
      ],
      "type": "VEC2"
    },
    {
      "bufferView": 1,
      "byteOffset": 47440,
      "componentType": 5126,
      "count": 330,
      "max": [
        0.9999999403953552,
        0.8667435050010681
      ],
      "min": [
        -9.231901465511783e-09,
        -2.4611262361418085e-08
      ],
      "type": "VEC2"
    },
    {
      "bufferView": 0,
      "byteOffset": 15408,
      "componentType": 5125,
      "count": 552,
      "type": "SCALAR"
    },
    {
      "bufferView": 2,
      "byteOffset": 75120,
      "componentType": 5126,
      "count": 30,
      "max": [
        -0.053637776523828506,
        0.15737861394882202,
        0.9176551103591919
      ],
      "min": [
        -0.15723817050457,
        0.051089830696582794,
        0.8968163728713989
      ],
      "type": "VEC3"
    },
    {
      "bufferView": 2,
      "byteOffset": 75480,
      "componentType": 5126,
      "count": 30,
      "max": [
        0.8541626930236816,
        0.8211278319358826,
        0.9998399019241333
      ],
      "min": [
        -0.837815523147583,
        -0.8284270763397217,
        0.4859675168991089
      ],
      "type": "VEC3"
    },
    {
      "bufferView": 1,
      "byteOffset": 50080,
      "componentType": 5126,
      "count": 30,
      "max": [
        0.8022986650466919,
        0.797088086605072
      ],
      "min": [
        0.7218595743179321,
        0.7030608057975769
      ],
      "type": "VEC2"
    },
    {
      "bufferView": 1,
      "byteOffset": 50320,
      "componentType": 5126,
      "count": 30,
      "max": [
        0.7303707003593445,
        0.0907297134399414
      ],
      "min": [
        0.7035324573516846,
        0.06691818684339523
      ],
      "type": "VEC2"
    },
    {
      "bufferView": 0,
      "byteOffset": 17616,
      "componentType": 5125,
      "count": 48,
      "type": "SCALAR"
    },
    {
      "bufferView": 2,
      "byteOffset": 75840,
      "componentType": 5126,
      "count": 336,
      "max": [
        0.6879748702049255,
        0.6879748702049255,
        0.6164072751998901
      ],
      "min": [
        -0.6879748702049255,
        -0.6879748702049255,
        -0.6164072751998901
      ],
      "type": "VEC3"
    },
    {
      "bufferView": 2,
      "byteOffset": 79872,
      "componentType": 5126,
      "count": 336,
      "max": [
        0.95264732837677,
        0.9526472687721252,
        1.0
      ],
      "min": [
        -0.95264732837677,
        -0.95264732837677,
        -1.0
      ],
      "type": "VEC3"
    },
    {
      "bufferView": 1,
      "byteOffset": 50560,
      "componentType": 5126,
      "count": 336,
      "max": [
        0.7446469664573669,
        0.9719723463058472
      ],
      "min": [
        0.3425585925579071,
        0.6615434885025024
      ],
      "type": "VEC2"
    },
    {
      "bufferView": 1,
      "byteOffset": 53248,
      "componentType": 5126,
      "count": 336,
      "max": [
        1.0,
        0.9856674075126648
      ],
      "min": [
        -6.8435905831165655e-09,
        1.903580404416516e-09
      ],
      "type": "VEC2"
    },
    {
      "bufferView": 0,
      "byteOffset": 17808,
      "componentType": 5125,
      "count": 552,
      "type": "SCALAR"
    },
    {
      "bufferView": 2,
      "byteOffset": 83904,
      "componentType": 5126,
      "count": 80,
      "max": [
        5.312187671661377,
        3.921250104904175,
        -1.7382463216781616
      ],
      "min": [
        -5.312187671661377,
        -3.921250104904175,
        -4.856729030609131
      ],
      "type": "VEC3"
    },
    {
      "bufferView": 2,
      "byteOffset": 84864,
      "componentType": 5126,
      "count": 80,
      "max": [
        0.9999146461486816,
        0.938069760799408,
        0.2571137249469757
      ],
      "min": [
        -0.9999146461486816,
        -0.938069760799408,
        -1.0
      ],
      "type": "VEC3"
    },
    {
      "bufferView": 1,
      "byteOffset": 55936,
      "componentType": 5126,
      "count": 80,
      "max": [
        0.9964089393615723,
        0.9700335264205933
      ],
      "min": [
        0.8992440700531006,
        0.47748032212257385
      ],
      "type": "VEC2"
    },
    {
      "bufferView": 1,
      "byteOffset": 56576,
      "componentType": 5126,
      "count": 80,
      "max": [
        0.7336915731430054,
        1.0
      ],
      "min": [
        -3.81871145815893e-10,
        1.1258841858818869e-08
      ],
      "type": "VEC2"
    },
    {
      "bufferView": 0,
      "byteOffset": 20016,
      "componentType": 5125,
      "count": 120,
      "type": "SCALAR"
    },
    {
      "bufferView": 2,
      "byteOffset": 85824,
      "componentType": 5126,
      "count": 160,
      "max": [
        7.443419933319092,
        8.63752555847168,
        20.14512825012207
      ],
      "min": [
        -7.443419933319092,
        -8.63752555847168,
        -20.14512825012207
      ],
      "type": "VEC3"
    },
    {
      "bufferView": 2,
      "byteOffset": 87744,
      "componentType": 5126,
      "count": 160,
      "max": [
        0.9999405145645142,
        1.0,
        1.0
      ],
      "min": [
        -0.9999405145645142,
        -1.0,
        -1.0
      ],
      "type": "VEC3"
    },
    {
      "bufferView": 1,
      "byteOffset": 57216,
      "componentType": 5126,
      "count": 160,
      "max": [
        0.1741756647825241,
        0.9964553117752075
      ],
      "min": [
        0.005674742162227631,
        0.8033833503723145
      ],
      "type": "VEC2"
    },
    {
      "bufferView": 1,
      "byteOffset": 58496,
      "componentType": 5126,
      "count": 160,
      "max": [
        0.9957635402679443,
        0.99609375
      ],
      "min": [
        0.016196489334106445,
        0.00390625
      ],
      "type": "VEC2"
    },
    {
      "bufferView": 0,
      "byteOffset": 20496,
      "componentType": 5125,
      "count": 240,
      "type": "SCALAR"
    },
    {
      "bufferView": 2,
      "byteOffset": 89664,
      "componentType": 5126,
      "count": 48,
      "max": [
        1.4346827268600464,
        0.40641069412231445,
        5.631475448608398
      ],
      "min": [
        -1.4346827268600464,
        -0.40641045570373535,
        4.818654537200928
      ],
      "type": "VEC3"
    },
    {
      "bufferView": 2,
      "byteOffset": 90240,
      "componentType": 5126,
      "count": 48,
      "max": [
        1.0,
        1.0,
        0.9953115582466125
      ],
      "min": [
        -1.0,
        -1.0,
        -1.0
      ],
      "type": "VEC3"
    },
    {
      "bufferView": 1,
      "byteOffset": 59776,
      "componentType": 5126,
      "count": 48,
      "max": [
        0.09240289032459259,
        0.9353994727134705
      ],
      "min": [
        0.004030120559036732,
        0.8691198229789734
      ],
      "type": "VEC2"
    },
    {
      "bufferView": 1,
      "byteOffset": 60160,
      "componentType": 5126,
      "count": 48,
      "max": [
        0.804222047328949,
        0.7004063129425049
      ],
      "min": [
        0.4627428352832794,
        0.5695142149925232
      ],
      "type": "VEC2"
    },
    {
      "bufferView": 0,
      "byteOffset": 21456,
      "componentType": 5125,
      "count": 72,
      "type": "SCALAR"
    },
    {
      "bufferView": 2,
      "byteOffset": 90816,
      "componentType": 5126,
      "count": 60,
      "max": [
        0.4805125594139099,
        0.24705630540847778,
        -8.3955659866333
      ],
      "min": [
        -0.48051249980926514,
        -0.24705630540847778,
        -9.880488395690918
      ],
      "type": "VEC3"
    },
    {
      "bufferView": 2,
      "byteOffset": 91536,
      "componentType": 5126,
      "count": 60,
      "max": [
        1.0,
        0.9985834956169128,
        0.40982115268707275
      ],
      "min": [
        -1.0,
        -0.9985834956169128,
        -0.4098212718963623
      ],
      "type": "VEC3"
    },
    {
      "bufferView": 1,
      "byteOffset": 60544,
      "componentType": 5126,
      "count": 60,
      "max": [
        0.19635751843452454,
        0.9182390570640564
      ],
      "min": [
        0.1227719783782959,
        0.8201249241828918
      ],
      "type": "VEC2"
    },
    {
      "bufferView": 1,
      "byteOffset": 61024,
      "componentType": 5126,
      "count": 60,
      "max": [
        0.30703863501548767,
        0.6224852800369263
      ],
      "min": [
        0.2079743891954422,
        0.4903995990753174
      ],
      "type": "VEC2"
    },
    {
      "bufferView": 0,
      "byteOffset": 21744,
      "componentType": 5125,
      "count": 96,
      "type": "SCALAR"
    },
    {
      "bufferView": 2,
      "byteOffset": 92256,
      "componentType": 5126,
      "count": 56,
      "max": [
        2.5621204376220703,
        0.44153305888175964,
        12.393289566040039
      ],
      "min": [
        -2.5621204376220703,
        -0.44153305888175964,
        9.881322860717773
      ],
      "type": "VEC3"
    },
    {
      "bufferView": 2,
      "byteOffset": 92928,
      "componentType": 5126,
      "count": 56,
      "max": [
        0.9401934146881104,
        1.0,
        1.0
      ],
      "min": [
        -0.9401934146881104,
        -1.0,
        -1.0
      ],
      "type": "VEC3"
    },
    {
      "bufferView": 1,
      "byteOffset": 61504,
      "componentType": 5126,
      "count": 56,
      "max": [
        0.20470145344734192,
        0.9505476355552673
      ],
      "min": [
        0.011048765853047371,
        0.7764543294906616
      ],
      "type": "VEC2"
    },
    {
      "bufferView": 1,
      "byteOffset": 61952,
      "componentType": 5126,
      "count": 56,
      "max": [
        0.9932364225387573,
        0.9914054870605469
      ],
      "min": [
        0.1046101301908493,
        0.042658351361751556
      ],
      "type": "VEC2"
    },
    {
      "bufferView": 0,
      "byteOffset": 22128,
      "componentType": 5125,
      "count": 84,
      "type": "SCALAR"
    },
    {
      "bufferView": 2,
      "byteOffset": 93600,
      "componentType": 5126,
      "count": 256,
      "max": [
        7.416619777679443,
        8.865225791931152,
        20.676193237304688
      ],
      "min": [
        -7.416619777679443,
        -8.865225791931152,
        -20.676193237304688
      ],
      "type": "VEC3"
    },
    {
      "bufferView": 2,
      "byteOffset": 96672,
      "componentType": 5126,
      "count": 256,
      "max": [
        1.0,
        1.0,
        1.0
      ],
      "min": [
        -1.0,
        -1.0,
        -1.0
      ],
      "type": "VEC3"
    },
    {
      "bufferView": 1,
      "byteOffset": 62400,
      "componentType": 5126,
      "count": 256,
      "max": [
        0.9969117641448975,
        0.9974746704101563
      ],
      "min": [
        0.11937330663204193,
        0.8801213502883911
      ],
      "type": "VEC2"
    },
    {
      "bufferView": 1,
      "byteOffset": 64448,
      "componentType": 5126,
      "count": 256,
      "max": [
        0.9959828853607178,
        0.9949028491973877
      ],
      "min": [
        0.00390625,
        0.004869856406003237
      ],
      "type": "VEC2"
    },
    {
      "bufferView": 0,
      "byteOffset": 22464,
      "componentType": 5125,
      "count": 384,
      "type": "SCALAR"
    },
    {
      "bufferView": 2,
      "byteOffset": 99744,
      "componentType": 5126,
      "count": 48,
      "max": [
        1.4346827268600464,
        0.40641069412231445,
        5.631475448608398
      ],
      "min": [
        -1.4346827268600464,
        -0.40641045570373535,
        4.818654537200928
      ],
      "type": "VEC3"
    },
    {
      "bufferView": 2,
      "byteOffset": 100320,
      "componentType": 5126,
      "count": 48,
      "max": [
        1.0,
        1.0,
        0.9953115582466125
      ],
      "min": [
        -1.0,
        -1.0,
        -1.0
      ],
      "type": "VEC3"
    },
    {
      "bufferView": 1,
      "byteOffset": 66496,
      "componentType": 5126,
      "count": 48,
      "max": [
        0.09240289032459259,
        0.9353994727134705
      ],
      "min": [
        0.004030120559036732,
        0.8691198229789734
      ],
      "type": "VEC2"
    },
    {
      "bufferView": 1,
      "byteOffset": 66880,
      "componentType": 5126,
      "count": 48,
      "max": [
        0.804222047328949,
        0.7004063129425049
      ],
      "min": [
        0.4627428352832794,
        0.5695142149925232
      ],
      "type": "VEC2"
    },
    {
      "bufferView": 0,
      "byteOffset": 24000,
      "componentType": 5125,
      "count": 72,
      "type": "SCALAR"
    },
    {
      "bufferView": 2,
      "byteOffset": 100896,
      "componentType": 5126,
      "count": 256,
      "max": [
        7.416619777679443,
        8.865225791931152,
        20.676193237304688
      ],
      "min": [
        -7.416619777679443,
        -8.865225791931152,
        -20.676193237304688
      ],
      "type": "VEC3"
    },
    {
      "bufferView": 2,
      "byteOffset": 103968,
      "componentType": 5126,
      "count": 256,
      "max": [
        1.0,
        1.0,
        1.0
      ],
      "min": [
        -1.0,
        -1.0,
        -1.0
      ],
      "type": "VEC3"
    },
    {
      "bufferView": 1,
      "byteOffset": 67264,
      "componentType": 5126,
      "count": 256,
      "max": [
        0.9969117641448975,
        0.9974746704101563
      ],
      "min": [
        0.11937330663204193,
        0.8801213502883911
      ],
      "type": "VEC2"
    },
    {
      "bufferView": 1,
      "byteOffset": 69312,
      "componentType": 5126,
      "count": 256,
      "max": [
        0.9959828853607178,
        0.9949028491973877
      ],
      "min": [
        0.00390625,
        0.004869856406003237
      ],
      "type": "VEC2"
    },
    {
      "bufferView": 0,
      "byteOffset": 24288,
      "componentType": 5125,
      "count": 384,
      "type": "SCALAR"
    },
    {
      "bufferView": 2,
      "byteOffset": 107040,
      "componentType": 5126,
      "count": 56,
      "max": [
        2.5621204376220703,
        0.44153305888175964,
        12.393289566040039
      ],
      "min": [
        -2.5621204376220703,
        -0.44153305888175964,
        9.881322860717773
      ],
      "type": "VEC3"
    },
    {
      "bufferView": 2,
      "byteOffset": 107712,
      "componentType": 5126,
      "count": 56,
      "max": [
        0.9401934146881104,
        1.0,
        1.0
      ],
      "min": [
        -0.9401934146881104,
        -1.0,
        -1.0
      ],
      "type": "VEC3"
    },
    {
      "bufferView": 1,
      "byteOffset": 71360,
      "componentType": 5126,
      "count": 56,
      "max": [
        0.20470145344734192,
        0.9505476355552673
      ],
      "min": [
        0.011048765853047371,
        0.7764543294906616
      ],
      "type": "VEC2"
    },
    {
      "bufferView": 1,
      "byteOffset": 71808,
      "componentType": 5126,
      "count": 56,
      "max": [
        0.9932364225387573,
        0.9914054870605469
      ],
      "min": [
        0.1046101301908493,
        0.042658351361751556
      ],
      "type": "VEC2"
    },
    {
      "bufferView": 0,
      "byteOffset": 25824,
      "componentType": 5125,
      "count": 84,
      "type": "SCALAR"
    },
    {
      "bufferView": 2,
      "byteOffset": 108384,
      "componentType": 5126,
      "count": 60,
      "max": [
        0.4805125594139099,
        0.24705630540847778,
        -8.3955659866333
      ],
      "min": [
        -0.48051249980926514,
        -0.24705630540847778,
        -9.880488395690918
      ],
      "type": "VEC3"
    },
    {
      "bufferView": 2,
      "byteOffset": 109104,
      "componentType": 5126,
      "count": 60,
      "max": [
        1.0,
        0.9985834956169128,
        0.40982115268707275
      ],
      "min": [
        -1.0,
        -0.9985834956169128,
        -0.4098212718963623
      ],
      "type": "VEC3"
    },
    {
      "bufferView": 1,
      "byteOffset": 72256,
      "componentType": 5126,
      "count": 60,
      "max": [
        0.19635751843452454,
        0.9182390570640564
      ],
      "min": [
        0.1227719783782959,
        0.8201249241828918
      ],
      "type": "VEC2"
    },
    {
      "bufferView": 1,
      "byteOffset": 72736,
      "componentType": 5126,
      "count": 60,
      "max": [
        0.30703863501548767,
        0.6224852800369263
      ],
      "min": [
        0.2079743891954422,
        0.4903995990753174
      ],
      "type": "VEC2"
    },
    {
      "bufferView": 0,
      "byteOffset": 26160,
      "componentType": 5125,
      "count": 96,
      "type": "SCALAR"
    },
    {
      "bufferView": 2,
      "byteOffset": 109824,
      "componentType": 5126,
      "count": 160,
      "max": [
        7.443419933319092,
        8.63752555847168,
        20.14512825012207
      ],
      "min": [
        -7.443419933319092,
        -8.63752555847168,
        -20.14512825012207
      ],
      "type": "VEC3"
    },
    {
      "bufferView": 2,
      "byteOffset": 111744,
      "componentType": 5126,
      "count": 160,
      "max": [
        0.9999405145645142,
        1.0,
        1.0
      ],
      "min": [
        -0.9999405145645142,
        -1.0,
        -1.0
      ],
      "type": "VEC3"
    },
    {
      "bufferView": 1,
      "byteOffset": 73216,
      "componentType": 5126,
      "count": 160,
      "max": [
        0.1741756647825241,
        0.9964553117752075
      ],
      "min": [
        0.005674742162227631,
        0.8033833503723145
      ],
      "type": "VEC2"
    },
    {
      "bufferView": 1,
      "byteOffset": 74496,
      "componentType": 5126,
      "count": 160,
      "max": [
        0.9957635402679443,
        0.99609375
      ],
      "min": [
        0.016196489334106445,
        0.00390625
      ],
      "type": "VEC2"
    },
    {
      "bufferView": 0,
      "byteOffset": 26544,
      "componentType": 5125,
      "count": 240,
      "type": "SCALAR"
    },
    {
      "bufferView": 2,
      "byteOffset": 113664,
      "componentType": 5126,
      "count": 60,
      "max": [
        0.4805125594139099,
        0.24705630540847778,
        -8.3955659866333
      ],
      "min": [
        -0.48051249980926514,
        -0.24705630540847778,
        -9.880488395690918
      ],
      "type": "VEC3"
    },
    {
      "bufferView": 2,
      "byteOffset": 114384,
      "componentType": 5126,
      "count": 60,
      "max": [
        1.0,
        0.9985834956169128,
        0.40982115268707275
      ],
      "min": [
        -1.0,
        -0.9985834956169128,
        -0.4098212718963623
      ],
      "type": "VEC3"
    },
    {
      "bufferView": 1,
      "byteOffset": 75776,
      "componentType": 5126,
      "count": 60,
      "max": [
        0.19635751843452454,
        0.9182390570640564
      ],
      "min": [
        0.1227719783782959,
        0.8201249241828918
      ],
      "type": "VEC2"
    },
    {
      "bufferView": 1,
      "byteOffset": 76256,
      "componentType": 5126,
      "count": 60,
      "max": [
        0.30703863501548767,
        0.6224852800369263
      ],
      "min": [
        0.2079743891954422,
        0.4903995990753174
      ],
      "type": "VEC2"
    },
    {
      "bufferView": 0,
      "byteOffset": 27504,
      "componentType": 5125,
      "count": 96,
      "type": "SCALAR"
    },
    {
      "bufferView": 2,
      "byteOffset": 115104,
      "componentType": 5126,
      "count": 56,
      "max": [
        2.5621204376220703,
        0.44153305888175964,
        12.393289566040039
      ],
      "min": [
        -2.5621204376220703,
        -0.44153305888175964,
        9.881322860717773
      ],
      "type": "VEC3"
    },
    {
      "bufferView": 2,
      "byteOffset": 115776,
      "componentType": 5126,
      "count": 56,
      "max": [
        0.9401934146881104,
        1.0,
        1.0
      ],
      "min": [
        -0.9401934146881104,
        -1.0,
        -1.0
      ],
      "type": "VEC3"
    },
    {
      "bufferView": 1,
      "byteOffset": 76736,
      "componentType": 5126,
      "count": 56,
      "max": [
        0.20470145344734192,
        0.9505476355552673
      ],
      "min": [
        0.011048765853047371,
        0.7764543294906616
      ],
      "type": "VEC2"
    },
    {
      "bufferView": 1,
      "byteOffset": 77184,
      "componentType": 5126,
      "count": 56,
      "max": [
        0.9932364225387573,
        0.9914054870605469
      ],
      "min": [
        0.1046101301908493,
        0.042658351361751556
      ],
      "type": "VEC2"
    },
    {
      "bufferView": 0,
      "byteOffset": 27888,
      "componentType": 5125,
      "count": 84,
      "type": "SCALAR"
    },
    {
      "bufferView": 2,
      "byteOffset": 116448,
      "componentType": 5126,
      "count": 48,
      "max": [
        1.4346827268600464,
        0.40641069412231445,
        5.631475448608398
      ],
      "min": [
        -1.4346827268600464,
        -0.40641045570373535,
        4.818654537200928
      ],
      "type": "VEC3"
    },
    {
      "bufferView": 2,
      "byteOffset": 117024,
      "componentType": 5126,
      "count": 48,
      "max": [
        1.0,
        1.0,
        0.9953115582466125
      ],
      "min": [
        -1.0,
        -1.0,
        -1.0
      ],
      "type": "VEC3"
    },
    {
      "bufferView": 1,
      "byteOffset": 77632,
      "componentType": 5126,
      "count": 48,
      "max": [
        0.09240289032459259,
        0.9353994727134705
      ],
      "min": [
        0.004030120559036732,
        0.8691198229789734
      ],
      "type": "VEC2"
    },
    {
      "bufferView": 1,
      "byteOffset": 78016,
      "componentType": 5126,
      "count": 48,
      "max": [
        0.804222047328949,
        0.7004063129425049
      ],
      "min": [
        0.4627428352832794,
        0.5695142149925232
      ],
      "type": "VEC2"
    },
    {
      "bufferView": 0,
      "byteOffset": 28224,
      "componentType": 5125,
      "count": 72,
      "type": "SCALAR"
    },
    {
      "bufferView": 2,
      "byteOffset": 117600,
      "componentType": 5126,
      "count": 9,
      "max": [
        1.3254420757293701,
        1.580902338027954,
        -0.6007857322692871
      ],
      "min": [
        -1.3550477027893066,
        -1.4715174436569214,
        -0.8068337440490723
      ],
      "type": "VEC3"
    },
    {
      "bufferView": 2,
      "byteOffset": 117708,
      "componentType": 5126,
      "count": 9,
      "max": [
        0.08320601284503937,
        0.07151087373495102,
        0.9998140931129456
      ],
      "min": [
        -0.07602676749229431,
        -0.03456352651119232,
        0.9939743280410767
      ],
      "type": "VEC3"
    },
    {
      "bufferView": 1,
      "byteOffset": 78400,
      "componentType": 5126,
      "count": 9,
      "max": [
        0.9907400608062744,
        0.36665260791778564
      ],
      "min": [
        0.8616212606430054,
        0.21281760931015015
      ],
      "type": "VEC2"
    },
    {
      "bufferView": 1,
      "byteOffset": 78472,
      "componentType": 5126,
      "count": 9,
      "max": [
        0.5005253553390503,
        0.5664846301078796
      ],
      "min": [
        0.383041113615036,
        0.43351536989212036
      ],
      "type": "VEC2"
    },
    {
      "bufferView": 0,
      "byteOffset": 28512,
      "componentType": 5125,
      "count": 24,
      "type": "SCALAR"
    }
  ],
  "asset": {
    "extras": {
      "author": "Low Quality (https://sketchfab.com/LowQuality_Off)",
      "license": "CC-BY-NC-4.0 (http://creativecommons.org/licenses/by-nc/4.0/)",
      "source": "https://sketchfab.com/3d-models/gunpowder-barrelfantasy-environment-e0af2937b92f4a5da03e6945a286bede",
      "title": "Gunpowder Barrel︱FANTASY Environment"
    },
    "generator": "Sketchfab-17.15.0",
    "version": "2.0"
  },
  "bufferViews": [
    {
      "buffer": 0,
      "byteLength": 28608,
      "name": "floatBufferViews",
      "target": 34963
    },
    {
      "buffer": 0,
      "byteLength": 78544,
      "byteOffset": 28608,
      "byteStride": 8,
      "name": "floatBufferViews",
      "target": 34962
    },
    {
      "buffer": 0,
      "byteLength": 117816,
      "byteOffset": 107152,
      "byteStride": 12,
      "name": "floatBufferViews",
      "target": 34962
    }
  ],
  "buffers": [
    {
      "byteLength": 224968,
      "uri": "scene.bin"
    }
  ],
  "extensionsUsed": [
    "KHR_materials_unlit"
  ],
  "images": [
    {
      "uri": "textures/BB_texture_baseColor.png"
    },
    {
      "uri": "textures/Material_baseColor.png"
    }
  ],
  "materials": [
    {
      "doubleSided": true,
      "extensions": {
        "KHR_materials_unlit": {}
      },
      "name": "BB_texture",
      "pbrMetallicRoughness": {
        "baseColorTexture": {
          "index": 0
        },
        "metallicFactor": 0.0
      }
    },
    {
      "doubleSided": true,
      "extensions": {
        "KHR_materials_unlit": {}
      },
      "name": "BB_texture.002",
      "pbrMetallicRoughness": {
        "baseColorFactor": [
          0.9589790059092268,
          0.9589790059092268,
          0.9589790059092268,
          1.0
        ],
        "baseColorTexture": {
          "index": 0
        },
        "metallicFactor": 0.0
      }
    },
    {
      "doubleSided": true,
      "extensions": {
        "KHR_materials_unlit": {}
      },
      "name": "BB_texture.001",
      "pbrMetallicRoughness": {
        "baseColorTexture": {
          "index": 0
        },
        "metallicFactor": 0.0
      }
    },
    {
      "doubleSided": true,
      "extensions": {
        "KHR_materials_unlit": {}
      },
      "name": "Material",
      "pbrMetallicRoughness": {
        "baseColorTexture": {
          "index": 1
        },
        "metallicFactor": 0.0
      }
    }
  ],
  "meshes": [
    {
      "name": "Base_BB1_BB_texture_0",
      "primitives": [
        {
          "attributes": {
            "NORMAL": 1,
            "POSITION": 0,
            "TEXCOORD_0": 2,
            "TEXCOORD_1": 3
          },
          "indices": 4,
          "material": 0,
          "mode": 4
        }
      ]
    },
    {
      "name": "Base_BB1.001_BB_texture.002_0",
      "primitives": [
        {
          "attributes": {
            "NORMAL": 6,
            "POSITION": 5,
            "TEXCOORD_0": 7,
            "TEXCOORD_1": 8
          },
          "indices": 9,
          "material": 1,
          "mode": 4
        }
      ]
    },
    {
      "name": "Circle.001_BB_texture_0",
      "primitives": [
        {
          "attributes": {
            "NORMAL": 11,
            "POSITION": 10,
            "TEXCOORD_0": 12,
            "TEXCOORD_1": 13
          },
          "indices": 14,
          "material": 0,
          "mode": 4
        }
      ]
    },
    {
      "name": "Circle.002_BB_texture_0",
      "primitives": [
        {
          "attributes": {
            "NORMAL": 16,
            "POSITION": 15,
            "TEXCOORD_0": 17,
            "TEXCOORD_1": 18
          },
          "indices": 19,
          "material": 0,
          "mode": 4
        }
      ]
    },
    {
      "name": "Circle.003_BB_texture_0",
      "primitives": [
        {
          "attributes": {
            "NORMAL": 21,
            "POSITION": 20,
            "TEXCOORD_0": 22,
            "TEXCOORD_1": 23
          },
          "indices": 24,
          "material": 0,
          "mode": 4
        }
      ]
    },
    {
      "name": "Circle.004_BB_texture.001_0",
      "primitives": [
        {
          "attributes": {
            "NORMAL": 26,
            "POSITION": 25,
            "TEXCOORD_0": 27,
            "TEXCOORD_1": 28
          },
          "indices": 29,
          "material": 2,
          "mode": 4
        }
      ]
    },
    {
      "name": "Circle.009_BB_texture_0",
      "primitives": [
        {
          "attributes": {
            "NORMAL": 31,
            "POSITION": 30,
            "TEXCOORD_0": 32,
            "TEXCOORD_1": 33
          },
          "indices": 34,
          "material": 0,
          "mode": 4
        }
      ]
    },
    {
      "name": "Circle.010_BB_texture.002_0",
      "primitives": [
        {
          "attributes": {
            "NORMAL": 36,
            "POSITION": 35,
            "TEXCOORD_0": 37,
            "TEXCOORD_1": 38
          },
          "indices": 39,
          "material": 1,
          "mode": 4
        }
      ]
    },
    {
      "name": "Circle.014_BB_texture.002_0",
      "primitives": [
        {
          "attributes": {
            "NORMAL": 41,
            "POSITION": 40,
            "TEXCOORD_0": 42,
            "TEXCOORD_1": 43
          },
          "indices": 44,
          "material": 1,
          "mode": 4
        }
      ]
    },
    {
      "name": "Circle.016_BB_texture.002_0",
      "primitives": [
        {
          "attributes": {
            "NORMAL": 46,
            "POSITION": 45,
            "TEXCOORD_0": 47,
            "TEXCOORD_1": 48
          },
          "indices": 49,
          "material": 1,
          "mode": 4
        }
      ]
    },
    {
      "name": "Circle.018_BB_texture_0",
      "primitives": [
        {
          "attributes": {
            "NORMAL": 51,
            "POSITION": 50,
            "TEXCOORD_0": 52,
            "TEXCOORD_1": 53
          },
          "indices": 54,
          "material": 0,
          "mode": 4
        }
      ]
    },
    {
      "name": "Circle.035_BB_texture.002_0",
      "primitives": [
        {
          "attributes": {
            "NORMAL": 56,
            "POSITION": 55,
            "TEXCOORD_0": 57,
            "TEXCOORD_1": 58
          },
          "indices": 59,
          "material": 1,
          "mode": 4
        }
      ]
    },
    {
      "name": "Circle.049_BB_texture_0",
      "primitives": [
        {
          "attributes": {
            "NORMAL": 61,
            "POSITION": 60,
            "TEXCOORD_0": 62,
            "TEXCOORD_1": 63
          },
          "indices": 64,
          "material": 0,
          "mode": 4
        }
      ]
    },
    {
      "name": "Circle.052_BB_texture_0",
      "primitives": [
        {
          "attributes": {
            "NORMAL": 66,
            "POSITION": 65,
            "TEXCOORD_0": 67,
            "TEXCOORD_1": 68
          },
          "indices": 69,
          "material": 0,
          "mode": 4
        }
      ]
    },
    {
      "name": "Circle.053_BB_texture.002_0",
      "primitives": [
        {
          "attributes": {
            "NORMAL": 71,
            "POSITION": 70,
            "TEXCOORD_0": 72,
            "TEXCOORD_1": 73
          },
          "indices": 74,
          "material": 1,
          "mode": 4
        }
      ]
    },
    {
      "name": "Cube_BB_texture_0",
      "primitives": [
        {
          "attributes": {
            "NORMAL": 76,
            "POSITION": 75,
            "TEXCOORD_0": 77,
            "TEXCOORD_1": 78
          },
          "indices": 79,
          "material": 0,
          "mode": 4
        }
      ]
    },
    {
      "name": "Cube.007_BB_texture_0",
      "primitives": [
        {
          "attributes": {
            "NORMAL": 81,
            "POSITION": 80,
            "TEXCOORD_0": 82,
            "TEXCOORD_1": 83
          },
          "indices": 84,
          "material": 0,
          "mode": 4
        }
      ]
    },
    {
      "name": "Cube.009_BB_texture.002_0",
      "primitives": [
        {
          "attributes": {
            "NORMAL": 86,
            "POSITION": 85,
            "TEXCOORD_0": 87,
            "TEXCOORD_1": 88
          },
          "indices": 89,
          "material": 1,
          "mode": 4
        }
      ]
    },
    {
      "name": "Cube.010_BB_texture_0",
      "primitives": [
        {
          "attributes": {
            "NORMAL": 91,
            "POSITION": 90,
            "TEXCOORD_0": 92,
            "TEXCOORD_1": 93
          },
          "indices": 94,
          "material": 0,
          "mode": 4
        }
      ]
    },
    {
      "name": "Cube.011_BB_texture_0",
      "primitives": [
        {
          "attributes": {
            "NORMAL": 96,
            "POSITION": 95,
            "TEXCOORD_0": 97,
            "TEXCOORD_1": 98
          },
          "indices": 99,
          "material": 0,
          "mode": 4
        }
      ]
    },
    {
      "name": "Cube.012_BB_texture_0",
      "primitives": [
        {
          "attributes": {
            "NORMAL": 101,
            "POSITION": 100,
            "TEXCOORD_0": 102,
            "TEXCOORD_1": 103
          },
          "indices": 104,
          "material": 0,
          "mode": 4
        }
      ]
    },
    {
      "name": "Cube.013_BB_texture_0",
      "primitives": [
        {
          "attributes": {
            "NORMAL": 106,
            "POSITION": 105,
            "TEXCOORD_0": 107,
            "TEXCOORD_1": 108
          },
          "indices": 109,
          "material": 0,
          "mode": 4
        }
      ]
    },
    {
      "name": "Cube.030_BB_texture.002_0",
      "primitives": [
        {
          "attributes": {
            "NORMAL": 111,
            "POSITION": 110,
            "TEXCOORD_0": 112,
            "TEXCOORD_1": 113
          },
          "indices": 114,
          "material": 1,
          "mode": 4
        }
      ]
    },
    {
      "name": "Cube.038_BB_texture.002_0",
      "primitives": [
        {
          "attributes": {
            "NORMAL": 116,
            "POSITION": 115,
            "TEXCOORD_0": 117,
            "TEXCOORD_1": 118
          },
          "indices": 119,
          "material": 1,
          "mode": 4
        }
      ]
    },
    {
      "name": "Cube.039_BB_texture.002_0",
      "primitives": [
        {
          "attributes": {
            "NORMAL": 121,
            "POSITION": 120,
            "TEXCOORD_0": 122,
            "TEXCOORD_1": 123
          },
          "indices": 124,
          "material": 1,
          "mode": 4
        }
      ]
    },
    {
      "name": "Cube.040_BB_texture.002_0",
      "primitives": [
        {
          "attributes": {
            "NORMAL": 126,
            "POSITION": 125,
            "TEXCOORD_0": 127,
            "TEXCOORD_1": 128
          },
          "indices": 129,
          "material": 1,
          "mode": 4
        }
      ]
    },
    {
      "name": "Cube.041_BB_texture.002_0",
      "primitives": [
        {
          "attributes": {
            "NORMAL": 131,
            "POSITION": 130,
            "TEXCOORD_0": 132,
            "TEXCOORD_1": 133
          },
          "indices": 134,
          "material": 1,
          "mode": 4
        }
      ]
    },
    {
      "name": "Cube.042_BB_texture.002_0",
      "primitives": [
        {
          "attributes": {
            "NORMAL": 136,
            "POSITION": 135,
            "TEXCOORD_0": 137,
            "TEXCOORD_1": 138
          },
          "indices": 139,
          "material": 1,
          "mode": 4
        }
      ]
    },
    {
      "name": "Cube.043_BB_texture.002_0",
      "primitives": [
        {
          "attributes": {
            "NORMAL": 141,
            "POSITION": 140,
            "TEXCOORD_0": 142,
            "TEXCOORD_1": 143
          },
          "indices": 144,
          "material": 1,
          "mode": 4
        }
      ]
    },
    {
      "name": "Plane.022_Material_0",
      "primitives": [
        {
          "attributes": {
            "NORMAL": 146,
            "POSITION": 145,
            "TEXCOORD_0": 147,
            "TEXCOORD_1": 148
          },
          "indices": 149,
          "material": 3,
          "mode": 4
        }
      ]
    }
  ],
  "nodes": [
    {
      "children": [
        1
      ],
      "matrix": [
        1.0,
        4.371433167283723e-32,
        -1.6081226229577292e-16,
        0.0,
        -1.6081226229577292e-16,
        3.828568672208042e-16,
        -1.0,
        0.0,
        1.7853747624282703e-32,
        1.0,
        3.828568672208042e-16,
        0.0,
        0.0,
        0.0,
        0.0,
        1.0
      ],
      "name": "Sketchfab_model"
    },
    {
      "children": [
        2
      ],
      "matrix": [
        0.009999999776482582,
        0.0,
        0.0,
        0.0,
        0.0,
        0.0,
        0.009999999776482582,
        0.0,
        0.0,
        -0.009999999776482582,
        0.0,
        0.0,
        0.0,
        0.0,
        0.0,
        1.0
      ],
      "name": "b85ed526a5a146be976819b9c4195557.fbx"
    },
    {
      "children": [
        3,
        5,
        7,
        9,
        11,
        13,
        15,
        17,
        19,
        21,
        23,
        25,
        27,
        29,
        31,
        33,
        35,
        37,
        39,
        41,
        43,
        45,
        47,
        49,
        51,
        53,
        55,
        57,
        59,
        61
      ],
      "name": "RootNode"
    },
    {
      "children": [
        4
      ],
      "matrix": [
        7.549789970973109e-06,
        -99.99999999999972,
        -5.14793146999537e-07,
        0.0,
        -64.27878102529027,
        -4.458558611197816e-06,
        -76.60442748237703,
        0.0,
        76.60442748237679,
        6.114376133181665e-06,
        -64.27878102529043,
        0.0,
        -177.29298400878906,
        -24.393592834472656,
        -23.794090270996094,
        1.0
      ],
      "name": "Base_BB1"
    },
    {
      "mesh": 0,
      "name": "Base_BB1_BB_texture_0"
    },
    {
      "children": [
        6
      ],
      "matrix": [
        99.9999999999984,
        1.1920928244535259e-05,
        1.3435887069590503e-05,
        0.0,
        1.3435889011755958e-05,
        -1.6292066340461986e-05,
        -99.99999999999778,
        0.0,
        -1.1920926055551357e-05,
        99.99999999999798,
        -1.629206793918314e-05,
        0.0,
        8.490556524520798e-07,
        1.2060409784317017,
        -8.881784197001252e-14,
        1.0
      ],
      "name": "Base_BB1.001"
    },
    {
      "mesh": 1,
      "name": "Base_BB1.001_BB_texture.002_0"
    },
    {
      "children": [
        8
      ],
      "matrix": [
        7.549789970973109e-06,
        -99.99999999999972,
        -5.14793146999537e-07,
        0.0,
        -64.27878102529027,
        -4.458558611197816e-06,
        -76.60442748237703,
        0.0,
        76.60442748237679,
        6.114376133181665e-06,
        -64.27878102529043,
        0.0,
        -177.29298400878906,
        -24.393592834472656,
        -23.794090270996094,
        1.0
      ],
      "name": "Circle.001"
    },
    {
      "mesh": 2,
      "name": "Circle.001_BB_texture_0"
    },
    {
      "children": [
        10
      ],
      "matrix": [
        7.549789970973109e-06,
        -99.99999999999972,
        -5.14793146999537e-07,
        0.0,
        -64.27878102529027,
        -4.458558611197816e-06,
        -76.60442748237703,
        0.0,
        76.60442748237679,
        6.114376133181665e-06,
        -64.27878102529043,
        0.0,
        -177.29298400878906,
        -24.393592834472656,
        -23.794090270996094,
        1.0
      ],
      "name": "Circle.002"
    },
    {
      "mesh": 3,
      "name": "Circle.002_BB_texture_0"
    },
    {
      "children": [
        12
      ],
      "matrix": [
        2.2009747923037293,
        -3.3308914685670588,
        2.62301693420009,
        0.0,
        -2.141056606190834,
        -3.424106872376607,
        -2.5516101944575262,
        0.0,
        3.659362297116786,
        4.150478013400313e-07,
        -3.07057216610678,
        0.0,
        -177.29295349121094,
        -24.393592834472656,
        -23.79411506652832,
        1.0
      ],
      "name": "Circle.003"
    },
    {
      "mesh": 4,
      "name": "Circle.003_BB_texture_0"
    },
    {
      "children": [
        14
      ],
      "matrix": [
        3.1114679812487172e-06,
        -3.419334888456836,
        6.874214150222705e-15,
        0.0,
        3.4193348884561363,
        3.1114679812487172e-06,
        2.1875467019673867e-06,
        0.0,
        -2.1875467019664867e-06,
        -1.9837121839618915e-12,
        3.4193348884575525,
        0.0,
        -6.130214387667365e-06,
        1.2060409784317017,
        -0.6930466890335083,
        1.0
      ],
      "name": "Circle.004"
    },
    {
      "mesh": 5,
      "name": "Circle.004_BB_texture.001_0"
    },
    {
      "children": [
        16
      ],
      "matrix": [
        -2.6193629892613686,
        1.3315380221700297e-06,
        2.197905505228507,
        0.0,
        9.938077334854643e-07,
        3.419334888457992,
        -8.871315051272266e-07,
        0.0,
        -2.197905505228685,
        -4.077516450413768e-08,
        -2.619362989261557,
        0.0,
        -177.29298400878906,
        -24.393592834472656,
        -23.794090270996094,
        1.0
      ],
      "name": "Circle.009"
    },
    {
      "mesh": 6,
      "name": "Circle.009_BB_texture_0"
    },
    {
      "children": [
        18
      ],
      "matrix": [
        99.9999999999984,
        1.1920928244535259e-05,
        1.3435887069590503e-05,
        0.0,
        1.3435889011755958e-05,
        -1.6292066340461986e-05,
        -99.99999999999778,
        0.0,
        -1.1920926055551357e-05,
        99.99999999999798,
        -1.629206793918314e-05,
        0.0,
        8.490556524520798e-07,
        1.2060409784317017,
        -8.881784197001252e-14,
        1.0
      ],
      "name": "Circle.010"
    },
    {
      "mesh": 7,
      "name": "Circle.010_BB_texture.002_0"
    },
    {
      "children": [
        20
      ],
      "matrix": [
        6.657690829943791e-07,
        3.4193348884581876,
        -1.5930002166152228e-08,
        0.0,
        -3.098969703505468,
        5.966593670062564e-07,
        -1.4450736507813997,
        0.0,
        -1.4450736507813695,
        2.958037121880704e-07,
        3.0989697035055253,
        0.0,
        8.490556524520798e-07,
        1.2060409784317017,
        -8.881784197001252e-14,
        1.0
      ],
      "name": "Circle.014"
    },
    {
      "mesh": 8,
      "name": "Circle.014_BB_texture.002_0"
    },
    {
      "children": [
        22
      ],
      "matrix": [
        3.1114679816283396e-06,
        -3.4193348884568358,
        8.934153507658192e-14,
        0.0,
        -3.419334888456577,
        -3.1114679812487172e-06,
        -1.331538166407472e-06,
        0.0,
        1.3315381664070021e-06,
        1.1223088314131564e-12,
        -3.419334888457992,
        0.0,
        8.490556524520798e-07,
        1.2060409784317017,
        -8.881784197001252e-14,
        1.0
      ],
      "name": "Circle.016"
    },
    {
      "mesh": 9,
      "name": "Circle.016_BB_texture.002_0"
    },
    {
      "children": [
        24
      ],
      "matrix": [
        2.619362666109293,
        -1.8981121610352214e-16,
        -2.197905890346678,
        0.0,
        -2.1979058903466755,
        -1.494638810657473e-07,
        -2.61936266610929,
        0.0,
        -9.607352139953766e-08,
        3.419334888458249,
        -1.1449598342582777e-07,
        0.0,
        -177.29298400878906,
        -24.393592834472656,
        -23.794090270996094,
        1.0
      ],
      "name": "Circle.018"
    },
    {
      "mesh": 10,
      "name": "Circle.018_BB_texture_0"
    },
    {
      "children": [
        26
      ],
      "matrix": [
        3.330890987999209,
        1.566572094458519e-07,
        3.4241073398617816,
        0.0,
        3.4241073398617843,
        -4.7766232014557426e-08,
        -3.3308909879992092,
        0.0,
        -7.499568528832444e-08,
        4.776959896087643,
        -1.4559787601016594e-07,
        0.0,
        1.0399858751952706e-07,
        1.2060528993606567,
        1.4210854715202004e-12,
        1.0
      ],
      "name": "Circle.035"
    },
    {
      "mesh": 11,
      "name": "Circle.035_BB_texture.002_0"
    },
    {
      "children": [
        28
      ],
      "matrix": [
        99.9999999999984,
        1.1920928244535259e-05,
        1.3435887069590503e-05,
        0.0,
        1.3435889011755958e-05,
        -1.6292066340461986e-05,
        -99.99999999999778,
        0.0,
        -1.1920926055551357e-05,
        99.99999999999798,
        -1.629206793918314e-05,
        0.0,
        8.490556524520798e-07,
        1.2060409784317017,
        -8.881784197001252e-14,
        1.0
      ],
      "name": "Circle.049"
    },
    {
      "mesh": 12,
      "name": "Circle.049_BB_texture_0"
    },
    {
      "children": [
        30
      ],
      "matrix": [
        7.549789970973109e-06,
        -99.99999999999972,
        -5.14793146999537e-07,
        0.0,
        -64.27878102529027,
        -4.458558611197816e-06,
        -76.60442748237703,
        0.0,
        76.60442748237679,
        6.114376133181665e-06,
        -64.27878102529043,
        0.0,
        -177.29298400878906,
        -24.393592834472656,
        -23.794090270996094,
        1.0
      ],
      "name": "Circle.052"
    },
    {
      "mesh": 13,
      "name": "Circle.052_BB_texture_0"
    },
    {
      "children": [
        32
      ],
      "matrix": [
        99.9999999999984,
        1.1920928244535259e-05,
        1.3435887069590503e-05,
        0.0,
        1.3435889011755958e-05,
        -1.6292066340461986e-05,
        -99.99999999999778,
        0.0,
        -1.1920926055551357e-05,
        99.99999999999798,
        -1.629206793918314e-05,
        0.0,
        8.490556524520798e-07,
        1.2060409784317017,
        -8.881784197001252e-14,
        1.0
      ],
      "name": "Circle.053"
    },
    {
      "mesh": 14,
      "name": "Circle.053_BB_texture.002_0"
    },
    {
      "children": [
        34
      ],
      "matrix": [
        11.923619848359252,
        -8.640411041373707e-16,
        -10.005105815497684,
        0.0,
        -10.005105815497288,
        -4.39140397653765e-06,
        -11.92361984835878,
        0.0,
        -2.822740196399568e-06,
        15.5651807785028,
        -3.3640105031342903e-06,
        0.0,
        -177.29298400878906,
        -24.393592834472656,
        -23.794090270996094,
        1.0
      ],
      "name": "Cube"
    },
    {
      "mesh": 15,
      "name": "Cube_BB_texture_0"
    },
    {
      "children": [
        36
      ],
      "matrix": [
        6.0525944020777045,
        -1.2386670142934889e-07,
        -5.078730135748942,
        0.0,
        -3.591203755518943,
        -5.5869234672377495,
        -4.279829499571403,
        0.0,
        -1.5397828976971375,
        2.395475766919067,
        -1.8350417121271245,
        0.0,
        -177.29298400878906,
        -24.393592834472656,
        -23.794090270996094,
        1.0
      ],
      "name": "Cube.007"
    },
    {
      "mesh": 16,
      "name": "Cube.007_BB_texture_0"
    },
    {
      "children": [
        38
      ],
      "matrix": [
        9.414895017142245e-07,
        12.47040653228754,
        7.432942387847876e-07,
        0.0,
        2.0316871640658373e-06,
        7.432940851060373e-07,
        -12.47040653228741,
        0.0,
        -12.470406532287397,
        9.414896228573835e-07,
        -2.0316871073016143e-06,
        0.0,
        8.490556524520798e-07,
        1.2060409784317017,
        -8.881784197001252e-14,
        1.0
      ],
      "name": "Cube.009"
    },
    {
      "mesh": 17,
      "name": "Cube.009_BB_texture.002_0"
    },
    {
      "children": [
        40
      ],
      "matrix": [
        -56.44145202636719,
        -0.0,
        -0.0,
        -0.0,
        -0.0,
        9.195479709997202e-06,
        56.44145202636644,
        -0.0,
        -0.0,
        -7.113495349883939,
        1.1589354952537403e-06,
        -0.0,
        0.0,
        1.206041693687439,
        0.0,
        1.0
      ],
      "name": "Cube.010"
    },
    {
      "mesh": 18,
      "name": "Cube.010_BB_texture_0"
    },
    {
      "children": [
        42
      ],
      "matrix": [
        6.668245792388916,
        0.0,
        0.0,
        0.0,
        0.0,
        -1.0863951348477235e-06,
        -6.668245792388828,
        0.0,
        0.0,
        6.668245792388828,
        -1.0863951348477235e-06,
        0.0,
        0.0,
        1.206041693687439,
        0.0,
        1.0
      ],
      "name": "Cube.011"
    },
    {
      "mesh": 19,
      "name": "Cube.011_BB_texture_0"
    },
    {
      "children": [
        44
      ],
      "matrix": [
        6.052594402077706,
        1.4905218639400629e-15,
        -5.078730135748943,
        0.0,
        -7.668668670229679e-07,
        -7.9011006355284765,
        -9.139162732013083e-07,
        0.0,
        -2.1775813942036883,
        5.11530748291601e-07,
        -2.5951402426075556,
        0.0,
        -177.29298400878906,
        -24.393592834472656,
        -23.794090270996094,
        1.0
      ],
      "name": "Cube.012"
    },
    {
      "mesh": 20,
      "name": "Cube.012_BB_texture_0"
    },
    {
      "children": [
        46
      ],
      "matrix": [
        12.470406532287598,
        0.0,
        0.0,
        0.0,
        0.0,
        -2.031687104532628e-06,
        -12.470406532287432,
        0.0,
        0.0,
        12.470406532287432,
        -2.031687104532628e-06,
        0.0,
        0.0,
        1.206041693687439,
        0.0,
        1.0
      ],
      "name": "Cube.013"
    },
    {
      "mesh": 21,
      "name": "Cube.013_BB_texture_0"
    },
    {
      "children": [
        48
      ],
      "matrix": [
        2.480285690238801e-06,
        7.9011006355281745,
        1.8527233716859422e-14,
        0.0,
        7.901100635528085,
        -2.480285688484404e-06,
        1.193033004214064e-06,
        0.0,
        5.115307128276291e-07,
        -1.5263409201173335e-13,
        -3.3877148628234472,
        0.0,
        8.490556524520798e-07,
        1.2060409784317017,
        -8.881784197001252e-14,
        1.0
      ],
      "name": "Cube.030"
    },
    {
      "mesh": 22,
      "name": "Cube.030_BB_texture.002_0"
    },
    {
      "children": [
        50
      ],
      "matrix": [
        5.034385520736147e-07,
        6.668245792388886,
        3.974584683707466e-07,
        0.0,
        1.0863951666816554e-06,
        3.9745838619478246e-07,
        -6.668245792388816,
        0.0,
        -6.6682457923888085,
        5.034386168519648e-07,
        -1.0863951363283714e-06,
        0.0,
        8.490556524520798e-07,
        1.2060409784317017,
        -8.881784197001252e-14,
        1.0
      ],
      "name": "Cube.038"
    },
    {
      "mesh": 23,
      "name": "Cube.038_BB_texture.002_0"
    },
    {
      "children": [
        52
      ],
      "matrix": [
        -4.261211084558268e-06,
        -56.44145202636693,
        -3.364173093413245e-06,
        -0.0,
        -9.19547997944638e-06,
        -3.3641723978583896e-06,
        56.441452026366335,
        -0.0,
        7.113495349883919,
        -5.370540276148885e-07,
        1.1589354968332535e-06,
        -0.0,
        8.490556524520798e-07,
        1.2060409784317017,
        -8.881784197001252e-14,
        1.0
      ],
      "name": "Cube.039"
    },
    {
      "mesh": 24,
      "name": "Cube.039_BB_texture.002_0"
    },
    {
      "children": [
        54
      ],
      "matrix": [
        1.5384010897906273e-06,
        7.901100635528401,
        -4.569583224392923e-07,
        0.0,
        5.586923540731777,
        -1.410932444331255e-06,
        -5.586920810056465,
        0.0,
        -2.395475735407301,
        3.2787449420222433e-07,
        -2.3954769062252055,
        0.0,
        8.490556524520798e-07,
        1.2060409784317017,
        -8.881784197001252e-14,
        1.0
      ],
      "name": "Cube.040"
    },
    {
      "mesh": 25,
      "name": "Cube.040_BB_texture.002_0"
    },
    {
      "children": [
        56
      ],
      "matrix": [
        -4.261211072025748e-06,
        -56.44145202636694,
        -3.364173093413245e-06,
        -0.0,
        -2.4671340652021985e-06,
        3.3641732876673037e-06,
        -56.44145202636704,
        -0.0,
        -7.1134953498840074,
        5.370539391621457e-07,
        3.1094076995079177e-07,
        -0.0,
        8.490556524520798e-07,
        1.2060409784317017,
        -8.881784197001252e-14,
        1.0
      ],
      "name": "Cube.041"
    },
    {
      "mesh": 26,
      "name": "Cube.041_BB_texture.002_0"
    },
    {
      "children": [
        58
      ],
      "matrix": [
        5.034385505929667e-07,
        6.668245792388887,
        3.974584683707466e-07,
        0.0,
        2.914782621442563e-07,
        -3.9745849132079064e-07,
        6.668245792388898,
        0.0,
        6.668245792388891,
        -5.034385339356767e-07,
        -2.9147829286770236e-07,
        0.0,
        8.490556524520798e-07,
        1.2060409784317017,
        -8.881784197001252e-14,
        1.0
      ],
      "name": "Cube.042"
    },
    {
      "mesh": 27,
      "name": "Cube.042_BB_texture.002_0"
    },
    {
      "children": [
        60
      ],
      "matrix": [
        9.41489498945238e-07,
        12.47040653228754,
        7.43294415999923e-07,
        0.0,
        -2.428077856063901e-06,
        -7.432942346313078e-07,
        12.47040653228734,
        0.0,
        12.470406532287328,
        -9.414896450092755e-07,
        2.428077799299678e-06,
        0.0,
        8.490556524520798e-07,
        1.2060409784317017,
        -8.881784197001252e-14,
        1.0
      ],
      "name": "Cube.043"
    },
    {
      "mesh": 28,
      "name": "Cube.043_BB_texture.002_0"
    },
    {
      "children": [
        62
      ],
      "matrix": [
        -20.664804458617784,
        -2.463436513916097e-06,
        3.1202986624295978e-06,
        0.0,
        -2.4634362783400724e-06,
        20.664804458617958,
        1.5601496628527399e-06,
        0.0,
        -3.1202988484138887e-06,
        1.5601492908841819e-06,
        -20.66480445861787,
        0.0,
        6.979270438023377e-06,
        1.1811485290527344,
        -81.89019775390625,
        1.0
      ],
      "name": "Plane.022"
    },
    {
      "mesh": 29,
      "name": "Plane.022_Material_0"
    }
  ],
  "samplers": [
    {
      "magFilter": 9729,
      "minFilter": 9987,
      "wrapS": 10497,
      "wrapT": 10497
    }
  ],
  "scene": 0,
  "scenes": [
    {
      "name": "Sketchfab_Scene",
      "nodes": [
        0
      ]
    }
  ],
  "textures": [
    {
      "sampler": 0,
      "source": 0
    },
    {
      "sampler": 0,
      "source": 1
    }
  ]
}
