{
  "accessors": [
    {
      "bufferView": 2,
      "componentType": 5126,
      "count": 60,
      "max": [
        0.6637836694717407,
        1.3296149969100952,
        0.7029188871383667
      ],
      "min": [
        -0.7748060822486877,
        -1.45138418674469,
        -0.5940151810646057
      ],
      "type": "VEC3"
    },
    {
      "bufferView": 2,
      "byteOffset": 720,
      "componentType": 5126,
      "count": 60,
      "max": [
        0.9582947492599487,
        0.8594620823860168,
        0.9386826157569885
      ],
      "min": [
        -0.9188632965087891,
        -0.9496456980705261,
        -0.9723169803619385
      ],
      "type": "VEC3"
    },
    {
      "bufferView": 1,
      "componentType": 5126,
      "count": 60,
      "max": [
        0.8115049600601196,
        0.8246559500694275
      ],
      "min": [
        0.4715559482574463,
        0.524303674697876
      ],
      "type": "VEC2"
    },
    {
      "bufferView": 0,
      "componentType": 5125,
      "count": 96,
      "type": "SCALAR"
    },
    {
      "bufferView": 2,
      "byteOffset": 1440,
      "componentType": 5126,
      "count": 82,
      "max": [
        1.0273737907409668,
        1.4079716205596924,
        0.9010884761810303
      ],
      "min": [
        -1.1049879789352417,
        -1.325027585029602,
        -0.8602948784828186
      ],
      "type": "VEC3"
    },
    {
      "bufferView": 2,
      "byteOffset": 2424,
      "componentType": 5126,
      "count": 82,
      "max": [
        0.9879986047744751,
        0.9861830472946167,
        0.9076757431030273
      ],
      "min": [
        -0.9904614686965942,
        -0.9895737171173096,
        -0.9163413047790527
      ],
      "type": "VEC3"
    },
    {
      "bufferView": 1,
      "byteOffset": 480,
      "componentType": 5126,
      "count": 82,
      "max": [
        0.8019537329673767,
        0.989364504814148
      ],
      "min": [
        0.26741310954093933,
        0.8069283962249756
      ],
      "type": "VEC2"
    },
    {
      "bufferView": 0,
      "byteOffset": 384,
      "componentType": 5125,
      "count": 144,
      "type": "SCALAR"
    },
    {
      "bufferView": 2,
      "byteOffset": 3408,
      "componentType": 5126,
      "count": 38,
      "max": [
        0.9708706140518188,
        1.6501644849777222,
        1.06474769115448
      ],
      "min": [
        -1.2337491512298584,
        -1.7667808532714844,
        -1.1880409717559814
      ],
      "type": "VEC3"
    },
    {
      "bufferView": 2,
      "byteOffset": 3864,
      "componentType": 5126,
      "count": 38,
      "max": [
        0.973682165145874,
        0.543051540851593,
        0.884881317615509
      ],
      "min": [
        -0.8845098614692688,
        -0.5307682156562805,
        -0.8474199771881104
      ],
      "type": "VEC3"
    },
    {
      "bufferView": 1,
      "byteOffset": 1136,
      "componentType": 5126,
      "count": 38,
      "max": [
        0.986149787902832,
        0.9973974227905273
      ],
      "min": [
        0.804979681968689,
        0.4302746057510376
      ],
      "type": "VEC2"
    },
    {
      "bufferView": 0,
      "byteOffset": 960,
      "componentType": 5125,
      "count": 60,
      "type": "SCALAR"
    },
    {
      "bufferView": 2,
      "byteOffset": 4320,
      "componentType": 5126,
      "count": 90,
      "max": [
        1.5583666563034058,
        0.6950111985206604,
        1.2391555309295654
      ],
      "min": [
        -1.5583664178848267,
        -0.6913208961486816,
        -1.5407731533050537
      ],
      "type": "VEC3"
    },
    {
      "bufferView": 2,
      "byteOffset": 5400,
      "componentType": 5126,
      "count": 90,
      "max": [
        0.744072675704956,
        0.9988636374473572,
        0.6800244450569153
      ],
      "min": [
        -0.7440727353096008,
        -0.9986230134963989,
        -0.8232869505882263
      ],
      "type": "VEC3"
    },
    {
      "bufferView": 1,
      "byteOffset": 1440,
      "componentType": 5126,
      "count": 90,
      "max": [
        0.9911391735076904,
        0.29402410984039307
      ],
      "min": [
        0.2797294855117798,
        0.012547188438475132
      ],
      "type": "VEC2"
    },
    {
      "bufferView": 0,
      "byteOffset": 1200,
      "componentType": 5125,
      "count": 150,
      "type": "SCALAR"
    },
    {
      "bufferView": 2,
      "byteOffset": 6480,
      "componentType": 5126,
      "count": 24,
      "max": [
        1.0,
        1.8552544116973877,
        1.0
      ],
      "min": [
        -1.0,
        -1.9635906219482422,
        -1.0
      ],
      "type": "VEC3"
    },
    {
      "bufferView": 2,
      "byteOffset": 6768,
      "componentType": 5126,
      "count": 24,
      "max": [
        0.8935884237289429,
        0.47989335656166077,
        0.8935884237289429
      ],
      "min": [
        -0.8935884237289429,
        -0.4488872289657593,
        -0.8935884237289429
      ],
      "type": "VEC3"
    },
    {
      "bufferView": 1,
      "byteOffset": 2160,
      "componentType": 5126,
      "count": 24,
      "max": [
        0.9280258417129517,
        0.6365702152252197
      ],
      "min": [
        0.4088250994682312,
        0.24579542875289917
      ],
      "type": "VEC2"
    },
    {
      "bufferView": 0,
      "byteOffset": 1800,
      "componentType": 5125,
      "count": 24,
      "type": "SCALAR"
    },
    {
      "bufferView": 2,
      "byteOffset": 7056,
      "componentType": 5126,
      "count": 48,
      "max": [
        1.1347957849502563,
        0.47686415910720825,
        1.3103492259979248
      ],
      "min": [
        -1.1347957849502563,
        -1.4721579551696777,
        -1.3103492259979248
      ],
      "type": "VEC3"
    },
    {
      "bufferView": 2,
      "byteOffset": 7632,
      "componentType": 5126,
      "count": 48,
      "max": [
        0.9680831432342529,
        1.0,
        0.8383846282958984
      ],
      "min": [
        -0.9680831432342529,
        -0.6644614934921265,
        -0.8383846879005432
      ],
      "type": "VEC3"
    },
    {
      "bufferView": 1,
      "byteOffset": 2352,
      "componentType": 5126,
      "count": 48,
      "max": [
        0.5047391057014465,
        0.7750091552734375
      ],
      "min": [
        0.0102432481944561,
        0.024364233016967773
      ],
      "type": "VEC2"
    },
    {
      "bufferView": 0,
      "byteOffset": 1896,
      "componentType": 5125,
      "count": 66,
      "type": "SCALAR"
    },
    {
      "bufferView": 2,
      "byteOffset": 8208,
      "componentType": 5126,
      "count": 96,
      "max": [
        0.813562273979187,
        1.326475977897644,
        0.812799334526062
      ],
      "min": [
        -0.8105275630950928,
        -1.4118138551712036,
        -0.8123513460159302
      ],
      "type": "VEC3"
    },
    {
      "bufferView": 2,
      "byteOffset": 9360,
      "componentType": 5126,
      "count": 96,
      "max": [
        0.9067003726959229,
        0.8159376978874207,
        0.9208489060401917
      ],
      "min": [
        -0.9276959300041199,
        -0.6869408488273621,
        -0.9213333129882813
      ],
      "type": "VEC3"
    },
    {
      "bufferView": 1,
      "byteOffset": 2736,
      "componentType": 5126,
      "count": 96,
      "max": [
        0.326307475566864,
        0.9970407485961914
      ],
      "min": [
        0.017351090908050537,
        0.24603864550590515
      ],
      "type": "VEC2"
    },
    {
      "bufferView": 0,
      "byteOffset": 2160,
      "componentType": 5125,
      "count": 144,
      "type": "SCALAR"
    }
  ],
  "asset": {
    "extras": {
      "author": "Kate Lisichenok (https://sketchfab.com/Lisichenok.Ekaterina)",
      "license": "CC-BY-4.0 (http://creativecommons.org/licenses/by/4.0/)",
      "source": "https://sketchfab.com/3d-models/crystals-pack-02a3182742404c66bed7b35d1dbe4496",
      "title": "Crystals pack"
    },
    "generator": "Sketchfab-12.68.0",
    "version": "2.0"
  },
  "bufferViews": [
    {
      "buffer": 0,
      "byteLength": 2736,
      "name": "floatBufferViews",
      "target": 34963
    },
    {
      "buffer": 0,
      "byteLength": 3504,
      "byteOffset": 2736,
      "byteStride": 8,
      "name": "floatBufferViews",
      "target": 34962
    },
    {
      "buffer": 0,
      "byteLength": 10512,
      "byteOffset": 6240,
      "byteStride": 12,
      "name": "floatBufferViews",
      "target": 34962
    }
  ],
  "buffers": [
    {
      "byteLength": 16752,
      "uri": "scene.bin"
    }
  ],
  "images": [
    {
      "uri": "textures/crystals_baseColor.png"
    }
  ],
  "materials": [
    {
      "doubleSided": true,
      "emissiveFactor": [
        1.0,
        1.0,
        1.0
      ],
      "emissiveTexture": {
        "index": 0
      },
      "name": "crystals",
      "pbrMetallicRoughness": {
        "baseColorTexture": {
          "index": 0
        }
      }
    }
  ],
  "meshes": [
    {
      "name": "Object_0",
      "primitives": [
        {
          "attributes": {
            "NORMAL": 1,
            "POSITION": 0,
            "TEXCOORD_0": 2
          },
          "indices": 3,
          "material": 0,
          "mode": 4
        }
      ]
    },
    {
      "name": "Object_1",
      "primitives": [
        {
          "attributes": {
            "NORMAL": 5,
            "POSITION": 4,
            "TEXCOORD_0": 6
          },
          "indices": 7,
          "material": 0,
          "mode": 4
        }
      ]
    },
    {
      "name": "Object_2",
      "primitives": [
        {
          "attributes": {
            "NORMAL": 9,
            "POSITION": 8,
            "TEXCOORD_0": 10
          },
          "indices": 11,
          "material": 0,
          "mode": 4
        }
      ]
    },
    {
      "name": "Object_3",
      "primitives": [
        {
          "attributes": {
            "NORMAL": 13,
            "POSITION": 12,
            "TEXCOORD_0": 14
          },
          "indices": 15,
          "material": 0,
          "mode": 4
        }
      ]
    },
    {
      "name": "Object_4",
      "primitives": [
        {
          "attributes": {
            "NORMAL": 17,
            "POSITION": 16,
            "TEXCOORD_0": 18
          },
          "indices": 19,
          "material": 0,
          "mode": 4
        }
      ]
    },
    {
      "name": "Object_5",
      "primitives": [
        {
          "attributes": {
            "NORMAL": 21,
            "POSITION": 20,
            "TEXCOORD_0": 22
          },
          "indices": 23,
          "material": 0,
          "mode": 4
        }
      ]
    },
    {
      "name": "Object_6",
      "primitives": [
        {
          "attributes": {
            "NORMAL": 25,
            "POSITION": 24,
            "TEXCOORD_0": 26
          },
          "indices": 27,
          "material": 0,
          "mode": 4
        }
      ]
    }
  ],
  "nodes": [
    {
      "children": [
        1
      ],
      "matrix": [
        1.0,
        0.0,
        0.0,
        0.0,
        0.0,
        2.220446049250313e-16,
        -1.0,
        0.0,
        0.0,
        1.0,
        2.220446049250313e-16,
        0.0,
        0.0,
        0.0,
        0.0,
        1.0
      ],
      "name": "Sketchfab_model"
    },
    {
      "children": [
        2
      ],
      "name": "root"
    },
    {
      "children": [
        3,
        5,
        7,
        9,
        11,
        13,
        15
      ],
      "matrix": [
        1.0,
        0.0,
        0.0,
        0.0,
        0.0,
        2.220446049250313e-16,
        1.0,
        0.0,
        0.0,
        -1.0,
        2.220446049250313e-16,
        0.0,
        0.0,
        0.0,
        0.0,
        1.0
      ],
      "name": "GLTF_SceneRootNode"
    },
    {
      "children": [
        4
      ],
      "matrix": [
        1.0,
        0.0,
        0.0,
        0.0,
        0.0,
        1.0,
        0.0,
        0.0,
        0.0,
        0.0,
        1.0,
        0.0,
        5.492080211639404,
        2.151458263397217,
        0.035333968698978424,
        1.0
      ],
      "name": "01_0"
    },
    {
      "mesh": 0,
      "name": "Object_4"
    },
    {
      "children": [
        6
      ],
      "matrix": [
        1.0,
        0.0,
        0.0,
        0.0,
        0.0,
        1.0,
        0.0,
        0.0,
        0.0,
        0.0,
        1.0,
        0.0,
        0.0484883077442646,
        2.3877804279327393,
        0.1618196964263916,
        1.0
      ],
      "name": "02_1"
    },
    {
      "mesh": 1,
      "name": "Object_6"
    },
    {
      "children": [
        8
      ],
      "matrix": [
        0.5342390181932098,
        0.0,
        -0.525649962722096,
        0.0,
        0.0,
        0.749479353427887,
        0.0,
        0.0,
        0.525649962722096,
        0.0,
        0.5342390181932098,
        0.0,
        -4.964474201202393,
        2.121635913848877,
        -0.3016267418861389,
        1.0
      ],
      "name": "03_2"
    },
    {
      "mesh": 2,
      "name": "Object_8"
    },
    {
      "children": [
        10
      ],
      "matrix": [
        -0.6391763642508496,
        -0.13195194982845693,
        -0.3022542377287602,
        0.0,
        0.14244310772309057,
        0.6123766410808578,
        -0.5685629449512445,
        0.0,
        0.36165129500312276,
        -0.5651275819514107,
        -0.518071391498237,
        0.0,
        -2.113563060760498,
        1.481899619102478,
        -4.324280261993408,
        1.0
      ],
      "name": "04_3"
    },
    {
      "mesh": 3,
      "name": "Object_10"
    },
    {
      "children": [
        12
      ],
      "matrix": [
        0.7234355807304382,
        0.0,
        0.0,
        0.0,
        0.0,
        0.7234355807304382,
        0.0,
        0.0,
        0.0,
        0.0,
        0.7234355807304382,
        0.0,
        2.640690565109253,
        3.0090460777282715,
        4.022181510925293,
        1.0
      ],
      "name": "06_4"
    },
    {
      "mesh": 4,
      "name": "Object_12"
    },
    {
      "children": [
        14
      ],
      "matrix": [
        0.0,
        0.0,
        -1.0,
        0.0,
        0.0,
        1.0,
        0.0,
        0.0,
        1.0,
        0.0,
        0.0,
        0.0,
        2.63285493850708,
        1.8782713413238525,
        -4.06481409072876,
        1.0
      ],
      "name": "07_5"
    },
    {
      "mesh": 5,
      "name": "Object_14"
    },
    {
      "children": [
        16
      ],
      "matrix": [
        0.9842702812625523,
        0.0,
        0.17666922036205437,
        0.0,
        -0.0,
        1.0,
        0.0,
        0.0,
        -0.17666922036205437,
        0.0,
        0.9842702812625523,
        0.0,
        -3.8158247470855713,
        3.262484312057495,
        3.8117904663085938,
        1.0
      ],
      "name": "05_6"
    },
    {
      "mesh": 6,
      "name": "Object_16"
    }
  ],
  "samplers": [
    {
      "magFilter": 9729,
      "minFilter": 9987,
      "wrapS": 10497,
      "wrapT": 10497
    }
  ],
  "scene": 0,
  "scenes": [
    {
      "name": "Sketchfab_Scene",
      "nodes": [
        0
      ]
    }
  ],
  "textures": [
    {
      "sampler": 0,
      "source": 0
    }
  ]
}
