{
  "accessors": [
    {
      "bufferView": 2,
      "componentType": 5126,
      "count": 24,
      "max": [
        0.20000028610229492,
        0.05000006780028343,
        2.0
      ],
      "min": [
        -0.19999980926513672,
        -0.05000006780028343,
        0.0
      ],
      "type": "VEC3"
    },
    {
      "bufferView": 2,
      "byteOffset": 288,
      "componentType": 5126,
      "count": 24,
      "max": [
        1.0,
        1.0,
        1.0
      ],
      "min": [
        -1.0,
        -1.0,
        -1.0
      ],
      "type": "VEC3"
    },
    {
      "bufferView": 3,
      "componentType": 5126,
      "count": 24,
      "max": [
        1.0,
        1.0,
        0.0,
        1.0
      ],
      "min": [
        -1.0,
        0.0,
        0.0,
        1.0
      ],
      "type": "VEC4"
    },
    {
      "bufferView": 1,
      "componentType": 5126,
      "count": 24,
      "max": [
        0.26680806279182434,
        0.9851239919662476
      ],
      "min": [
        0.005892746150493622,
        0.37221091985702515
      ],
      "type": "VEC2"
    },
    {
      "bufferView": 1,
      "byteOffset": 192,
      "componentType": 5126,
      "count": 24,
      "max": [
        0.26680806279182434,
        0.9851239919662476
      ],
      "min": [
        0.005892746150493622,
        0.37221091985702515
      ],
      "type": "VEC2"
    },
    {
      "bufferView": 1,
      "byteOffset": 384,
      "componentType": 5126,
      "count": 24,
      "max": [
        0.26680806279182434,
        0.9851239919662476
      ],
      "min": [
        0.005892746150493622,
        0.37221091985702515
      ],
      "type": "VEC2"
    },
    {
      "bufferView": 0,
      "componentType": 5125,
      "count": 36,
      "type": "SCALAR"
    },
    {
      "bufferView": 2,
      "byteOffset": 576,
      "componentType": 5126,
      "count": 66,
      "max": [
        0.10000002384185791,
        0.1000000610947609,
        2.0
      ],
      "min": [
        -0.09999990463256836,
        -0.10000007599592209,
        0.0
      ],
      "type": "VEC3"
    },
    {
      "bufferView": 2,
      "byteOffset": 1368,
      "componentType": 5126,
      "count": 66,
      "max": [
        1.0,
        1.0,
        1.0
      ],
      "min": [
        -1.0,
        -1.0,
        -1.0
      ],
      "type": "VEC3"
    },
    {
      "bufferView": 3,
      "byteOffset": 384,
      "componentType": 5126,
      "count": 66,
      "max": [
        6.100015070842346e-08,
        7.453094497122947e-08,
        0.0,
        1.0
      ],
      "min": [
        -3.708544582536888e-08,
        -1.0,
        -1.0,
        -1.0
      ],
      "type": "VEC4"
    },
    {
      "bufferView": 1,
      "byteOffset": 576,
      "componentType": 5126,
      "count": 66,
      "max": [
        0.9641880393028259,
        0.378181129693985
      ],
      "min": [
        0.004603386390954256,
        0.0084448903799057
      ],
      "type": "VEC2"
    },
    {
      "bufferView": 1,
      "byteOffset": 1104,
      "componentType": 5126,
      "count": 66,
      "max": [
        0.9641880393028259,
        0.378181129693985
      ],
      "min": [
        0.004603386390954256,
        0.0084448903799057
      ],
      "type": "VEC2"
    },
    {
      "bufferView": 1,
      "byteOffset": 1632,
      "componentType": 5126,
      "count": 66,
      "max": [
        0.9641880393028259,
        0.378181129693985
      ],
      "min": [
        0.004603386390954256,
        0.0084448903799057
      ],
      "type": "VEC2"
    },
    {
      "bufferView": 0,
      "byteOffset": 144,
      "componentType": 5125,
      "count": 180,
      "type": "SCALAR"
    },
    {
      "bufferView": 2,
      "byteOffset": 2160,
      "componentType": 5126,
      "count": 24,
      "max": [
        0.1000000536441803,
        0.10000006854534149,
        2.000000476837158
      ],
      "min": [
        -0.09999999403953552,
        -0.10000006854534149,
        0.0
      ],
      "type": "VEC3"
    },
    {
      "bufferView": 2,
      "byteOffset": 2448,
      "componentType": 5126,
      "count": 24,
      "max": [
        1.0,
        1.0,
        1.0
      ],
      "min": [
        -1.0,
        -1.0,
        -1.0
      ],
      "type": "VEC3"
    },
    {
      "bufferView": 3,
      "byteOffset": 1440,
      "componentType": 5126,
      "count": 24,
      "max": [
        1.0,
        1.0,
        0.0,
        -1.0
      ],
      "min": [
        -1.0,
        -1.0,
        0.0,
        -1.0
      ],
      "type": "VEC4"
    },
    {
      "bufferView": 1,
      "byteOffset": 2160,
      "componentType": 5126,
      "count": 24,
      "max": [
        0.9899036884307861,
        0.9851239919662476
      ],
      "min": [
        0.6895753741264343,
        0.37079504132270813
      ],
      "type": "VEC2"
    },
    {
      "bufferView": 1,
      "byteOffset": 2352,
      "componentType": 5126,
      "count": 24,
      "max": [
        0.9899036884307861,
        0.9851239919662476
      ],
      "min": [
        0.6895753741264343,
        0.37079504132270813
      ],
      "type": "VEC2"
    },
    {
      "bufferView": 1,
      "byteOffset": 2544,
      "componentType": 5126,
      "count": 24,
      "max": [
        0.9899036884307861,
        0.9851239919662476
      ],
      "min": [
        0.6895753741264343,
        0.37079504132270813
      ],
      "type": "VEC2"
    },
    {
      "bufferView": 0,
      "byteOffset": 864,
      "componentType": 5125,
      "count": 36,
      "type": "SCALAR"
    },
    {
      "bufferView": 2,
      "byteOffset": 2736,
      "componentType": 5126,
      "count": 24,
      "max": [
        0.2000001072883606,
        0.05000006780028343,
        2.0
      ],
      "min": [
        -0.19999992847442627,
        -0.05000006780028343,
        0.0
      ],
      "type": "VEC3"
    },
    {
      "bufferView": 2,
      "byteOffset": 3024,
      "componentType": 5126,
      "count": 24,
      "max": [
        1.0,
        1.0,
        1.0
      ],
      "min": [
        -1.0,
        -1.0,
        -1.0
      ],
      "type": "VEC3"
    },
    {
      "bufferView": 3,
      "byteOffset": 1824,
      "componentType": 5126,
      "count": 24,
      "max": [
        1.0,
        1.0,
        0.0,
        1.0
      ],
      "min": [
        -1.0,
        0.0,
        0.0,
        1.0
      ],
      "type": "VEC4"
    },
    {
      "bufferView": 1,
      "byteOffset": 2736,
      "componentType": 5126,
      "count": 24,
      "max": [
        0.5415799617767334,
        0.9851239919662476
      ],
      "min": [
        0.2803958058357239,
        0.37221094965934753
      ],
      "type": "VEC2"
    },
    {
      "bufferView": 1,
      "byteOffset": 2928,
      "componentType": 5126,
      "count": 24,
      "max": [
        0.5415799617767334,
        0.9851239919662476
      ],
      "min": [
        0.2803958058357239,
        0.37221094965934753
      ],
      "type": "VEC2"
    },
    {
      "bufferView": 1,
      "byteOffset": 3120,
      "componentType": 5126,
      "count": 24,
      "max": [
        0.5415799617767334,
        0.9851239919662476
      ],
      "min": [
        0.2803958058357239,
        0.37221094965934753
      ],
      "type": "VEC2"
    },
    {
      "bufferView": 0,
      "byteOffset": 1008,
      "componentType": 5125,
      "count": 36,
      "type": "SCALAR"
    },
    {
      "bufferView": 2,
      "byteOffset": 3312,
      "componentType": 5126,
      "count": 66,
      "max": [
        0.09999996423721313,
        0.1000000610947609,
        2.0
      ],
      "min": [
        -0.09999996423721313,
        -0.10000007599592209,
        0.0
      ],
      "type": "VEC3"
    },
    {
      "bufferView": 2,
      "byteOffset": 4104,
      "componentType": 5126,
      "count": 66,
      "max": [
        1.0,
        1.0,
        1.0
      ],
      "min": [
        -1.0,
        -1.0,
        -1.0
      ],
      "type": "VEC3"
    },
    {
      "bufferView": 3,
      "byteOffset": 2208,
      "componentType": 5126,
      "count": 66,
      "max": [
        6.100016491927818e-08,
        7.300987192593311e-08,
        0.0,
        1.0
      ],
      "min": [
        -6.119508810797925e-08,
        -1.0,
        -1.0,
        -1.0
      ],
      "type": "VEC4"
    },
    {
      "bufferView": 1,
      "byteOffset": 3312,
      "componentType": 5126,
      "count": 66,
      "max": [
        0.9946814775466919,
        0.4441577196121216
      ],
      "min": [
        0.5051450729370117,
        0.0084448903799057
      ],
      "type": "VEC2"
    },
    {
      "bufferView": 1,
      "byteOffset": 3840,
      "componentType": 5126,
      "count": 66,
      "max": [
        0.9946814775466919,
        0.4441577196121216
      ],
      "min": [
        0.5051450729370117,
        0.0084448903799057
      ],
      "type": "VEC2"
    },
    {
      "bufferView": 1,
      "byteOffset": 4368,
      "componentType": 5126,
      "count": 66,
      "max": [
        0.9946814775466919,
        0.4441577196121216
      ],
      "min": [
        0.5051450729370117,
        0.0084448903799057
      ],
      "type": "VEC2"
    },
    {
      "bufferView": 0,
      "byteOffset": 1152,
      "componentType": 5125,
      "count": 180,
      "type": "SCALAR"
    },
    {
      "bufferView": 2,
      "byteOffset": 4896,
      "componentType": 5126,
      "count": 24,
      "max": [
        0.10000008344650269,
        0.10000006854534149,
        2.000000476837158
      ],
      "min": [
        -0.10000002384185791,
        -0.10000006854534149,
        0.0
      ],
      "type": "VEC3"
    },
    {
      "bufferView": 2,
      "byteOffset": 5184,
      "componentType": 5126,
      "count": 24,
      "max": [
        1.0,
        1.0,
        1.0
      ],
      "min": [
        -1.0,
        -1.0,
        -1.0
      ],
      "type": "VEC3"
    },
    {
      "bufferView": 3,
      "byteOffset": 3264,
      "componentType": 5126,
      "count": 24,
      "max": [
        1.0,
        1.0,
        0.0,
        -1.0
      ],
      "min": [
        -1.0,
        -1.0,
        0.0,
        -1.0
      ],
      "type": "VEC4"
    },
    {
      "bufferView": 1,
      "byteOffset": 4896,
      "componentType": 5126,
      "count": 24,
      "max": [
        0.7641688585281372,
        0.9851239919662476
      ],
      "min": [
        0.554909348487854,
        0.36845993995666504
      ],
      "type": "VEC2"
    },
    {
      "bufferView": 1,
      "byteOffset": 5088,
      "componentType": 5126,
      "count": 24,
      "max": [
        0.7641688585281372,
        0.9851239919662476
      ],
      "min": [
        0.554909348487854,
        0.36845993995666504
      ],
      "type": "VEC2"
    },
    {
      "bufferView": 1,
      "byteOffset": 5280,
      "componentType": 5126,
      "count": 24,
      "max": [
        0.7641688585281372,
        0.9851239919662476
      ],
      "min": [
        0.554909348487854,
        0.36845993995666504
      ],
      "type": "VEC2"
    },
    {
      "bufferView": 0,
      "byteOffset": 1872,
      "componentType": 5125,
      "count": 36,
      "type": "SCALAR"
    },
    {
      "bufferView": 2,
      "byteOffset": 5472,
      "componentType": 5126,
      "count": 83,
      "max": [
        0.09999966621398926,
        0.1000000387430191,
        4.0
      ],
      "min": [
        -0.10000014305114746,
        -0.10000009089708328,
        0.0
      ],
      "type": "VEC3"
    },
    {
      "bufferView": 2,
      "byteOffset": 6468,
      "componentType": 5126,
      "count": 83,
      "max": [
        1.0,
        1.0,
        1.0
      ],
      "min": [
        -1.0,
        -1.0,
        -1.0
      ],
      "type": "VEC3"
    },
    {
      "bufferView": 3,
      "byteOffset": 3648,
      "componentType": 5126,
      "count": 83,
      "max": [
        1.0,
        0.9238799214363098,
        1.0,
        1.0
      ],
      "min": [
        -0.8799472451210022,
        -1.0,
        -1.0,
        -1.0
      ],
      "type": "VEC4"
    },
    {
      "bufferView": 1,
      "byteOffset": 5472,
      "componentType": 5126,
      "count": 83,
      "max": [
        0.8923220038414001,
        0.37378790974617004
      ],
      "min": [
        0.03652207553386688,
        0.0084448903799057
      ],
      "type": "VEC2"
    },
    {
      "bufferView": 1,
      "byteOffset": 6136,
      "componentType": 5126,
      "count": 83,
      "max": [
        0.8923220038414001,
        0.37378790974617004
      ],
      "min": [
        0.03652207553386688,
        0.0084448903799057
      ],
      "type": "VEC2"
    },
    {
      "bufferView": 1,
      "byteOffset": 6800,
      "componentType": 5126,
      "count": 83,
      "max": [
        0.8923220038414001,
        0.37378790974617004
      ],
      "min": [
        0.03652207553386688,
        0.0084448903799057
      ],
      "type": "VEC2"
    },
    {
      "bufferView": 0,
      "byteOffset": 2016,
      "componentType": 5125,
      "count": 276,
      "type": "SCALAR"
    },
    {
      "bufferView": 2,
      "byteOffset": 7464,
      "componentType": 5126,
      "count": 83,
      "max": [
        0.09999990463256836,
        0.1000000387430191,
        4.0
      ],
      "min": [
        -0.09999990463256836,
        -0.10000009089708328,
        0.0
      ],
      "type": "VEC3"
    },
    {
      "bufferView": 2,
      "byteOffset": 8460,
      "componentType": 5126,
      "count": 83,
      "max": [
        1.0,
        1.0,
        1.0
      ],
      "min": [
        -1.0,
        -1.0,
        -1.0
      ],
      "type": "VEC3"
    },
    {
      "bufferView": 3,
      "byteOffset": 4976,
      "componentType": 5126,
      "count": 83,
      "max": [
        1.0,
        1.0,
        1.0,
        1.0
      ],
      "min": [
        -0.9238795042037964,
        -1.0,
        -1.0,
        -1.0
      ],
      "type": "VEC4"
    },
    {
      "bufferView": 1,
      "byteOffset": 7464,
      "componentType": 5126,
      "count": 83,
      "max": [
        0.9946814775466919,
        0.4426943361759186
      ],
      "min": [
        0.521222710609436,
        0.0084448903799057
      ],
      "type": "VEC2"
    },
    {
      "bufferView": 1,
      "byteOffset": 8128,
      "componentType": 5126,
      "count": 83,
      "max": [
        0.9946814775466919,
        0.4426943361759186
      ],
      "min": [
        0.521222710609436,
        0.0084448903799057
      ],
      "type": "VEC2"
    },
    {
      "bufferView": 1,
      "byteOffset": 8792,
      "componentType": 5126,
      "count": 83,
      "max": [
        0.9946814775466919,
        0.4426943361759186
      ],
      "min": [
        0.521222710609436,
        0.0084448903799057
      ],
      "type": "VEC2"
    },
    {
      "bufferView": 0,
      "byteOffset": 3120,
      "componentType": 5125,
      "count": 276,
      "type": "SCALAR"
    },
    {
      "bufferView": 2,
      "byteOffset": 9456,
      "componentType": 5126,
      "count": 36,
      "max": [
        0.20000028610229492,
        0.05000005289912224,
        4.0
      ],
      "min": [
        -0.19999980926513672,
        -0.05000007897615433,
        0.0
      ],
      "type": "VEC3"
    },
    {
      "bufferView": 2,
      "byteOffset": 9888,
      "componentType": 5126,
      "count": 36,
      "max": [
        1.0,
        1.0,
        1.0
      ],
      "min": [
        -1.0,
        -1.0,
        -1.0
      ],
      "type": "VEC3"
    },
    {
      "bufferView": 3,
      "byteOffset": 6304,
      "componentType": 5126,
      "count": 36,
      "max": [
        1.0,
        1.0,
        0.0,
        1.0
      ],
      "min": [
        -1.0,
        0.0,
        0.0,
        -1.0
      ],
      "type": "VEC4"
    },
    {
      "bufferView": 1,
      "byteOffset": 9456,
      "componentType": 5126,
      "count": 36,
      "max": [
        0.26680806279182434,
        0.9851239919662476
      ],
      "min": [
        0.005892746150493622,
        0.37221091985702515
      ],
      "type": "VEC2"
    },
    {
      "bufferView": 1,
      "byteOffset": 9744,
      "componentType": 5126,
      "count": 36,
      "max": [
        0.26680806279182434,
        0.9851239919662476
      ],
      "min": [
        0.005892746150493622,
        0.37221091985702515
      ],
      "type": "VEC2"
    },
    {
      "bufferView": 1,
      "byteOffset": 10032,
      "componentType": 5126,
      "count": 36,
      "max": [
        0.26680806279182434,
        0.9851239919662476
      ],
      "min": [
        0.005892746150493622,
        0.37221091985702515
      ],
      "type": "VEC2"
    },
    {
      "bufferView": 0,
      "byteOffset": 4224,
      "componentType": 5125,
      "count": 60,
      "type": "SCALAR"
    },
    {
      "bufferView": 2,
      "byteOffset": 10320,
      "componentType": 5126,
      "count": 36,
      "max": [
        0.09999990463256836,
        0.09999998658895493,
        4.0
      ],
      "min": [
        -0.09999990463256836,
        -0.10000000894069672,
        0.0
      ],
      "type": "VEC3"
    },
    {
      "bufferView": 2,
      "byteOffset": 10752,
      "componentType": 5126,
      "count": 36,
      "max": [
        1.0,
        1.0,
        1.0
      ],
      "min": [
        -1.0,
        -1.0,
        -1.0
      ],
      "type": "VEC3"
    },
    {
      "bufferView": 3,
      "byteOffset": 6880,
      "componentType": 5126,
      "count": 36,
      "max": [
        1.0,
        1.0,
        0.0,
        1.0
      ],
      "min": [
        -1.0,
        -1.0,
        0.0,
        -1.0
      ],
      "type": "VEC4"
    },
    {
      "bufferView": 1,
      "byteOffset": 10320,
      "componentType": 5126,
      "count": 36,
      "max": [
        0.9899036884307861,
        0.9851239919662476
      ],
      "min": [
        0.7417584657669067,
        0.37079504132270813
      ],
      "type": "VEC2"
    },
    {
      "bufferView": 1,
      "byteOffset": 10608,
      "componentType": 5126,
      "count": 36,
      "max": [
        0.9899036884307861,
        0.9851239919662476
      ],
      "min": [
        0.7417584657669067,
        0.37079504132270813
      ],
      "type": "VEC2"
    },
    {
      "bufferView": 1,
      "byteOffset": 10896,
      "componentType": 5126,
      "count": 36,
      "max": [
        0.9899036884307861,
        0.9851239919662476
      ],
      "min": [
        0.7417584657669067,
        0.37079504132270813
      ],
      "type": "VEC2"
    },
    {
      "bufferView": 0,
      "byteOffset": 4464,
      "componentType": 5125,
      "count": 60,
      "type": "SCALAR"
    },
    {
      "bufferView": 2,
      "byteOffset": 11184,
      "componentType": 5126,
      "count": 40,
      "max": [
        0.20000028610229492,
        0.05000016465783119,
        4.0
      ],
      "min": [
        -0.20000004768371582,
        -0.050000302493572235,
        0.0
      ],
      "type": "VEC3"
    },
    {
      "bufferView": 2,
      "byteOffset": 11664,
      "componentType": 5126,
      "count": 40,
      "max": [
        1.0,
        1.0,
        1.0
      ],
      "min": [
        -1.0,
        -1.0,
        -1.0
      ],
      "type": "VEC3"
    },
    {
      "bufferView": 3,
      "byteOffset": 7456,
      "componentType": 5126,
      "count": 40,
      "max": [
        1.0,
        1.0,
        0.0,
        1.0
      ],
      "min": [
        -1.0,
        0.0,
        0.0,
        -1.0
      ],
      "type": "VEC4"
    },
    {
      "bufferView": 1,
      "byteOffset": 11184,
      "componentType": 5126,
      "count": 40,
      "max": [
        0.5415799617767334,
        0.9851239919662476
      ],
      "min": [
        0.2806646525859833,
        0.37221094965934753
      ],
      "type": "VEC2"
    },
    {
      "bufferView": 1,
      "byteOffset": 11504,
      "componentType": 5126,
      "count": 40,
      "max": [
        0.5415799617767334,
        0.9851239919662476
      ],
      "min": [
        0.2806646525859833,
        0.37221094965934753
      ],
      "type": "VEC2"
    },
    {
      "bufferView": 1,
      "byteOffset": 11824,
      "componentType": 5126,
      "count": 40,
      "max": [
        0.5415799617767334,
        0.9851239919662476
      ],
      "min": [
        0.2806646525859833,
        0.37221094965934753
      ],
      "type": "VEC2"
    },
    {
      "bufferView": 0,
      "byteOffset": 4704,
      "componentType": 5125,
      "count": 60,
      "type": "SCALAR"
    },
    {
      "bufferView": 2,
      "byteOffset": 12144,
      "componentType": 5126,
      "count": 36,
      "max": [
        0.09999990463256836,
        0.1000000536441803,
        4.0
      ],
      "min": [
        -0.09999990463256836,
        -0.10000007599592209,
        0.0
      ],
      "type": "VEC3"
    },
    {
      "bufferView": 2,
      "byteOffset": 12576,
      "componentType": 5126,
      "count": 36,
      "max": [
        1.0,
        1.0,
        1.0
      ],
      "min": [
        -1.0,
        -1.0,
        -1.0
      ],
      "type": "VEC3"
    },
    {
      "bufferView": 3,
      "byteOffset": 8096,
      "componentType": 5126,
      "count": 36,
      "max": [
        1.0,
        1.0,
        0.0,
        1.0
      ],
      "min": [
        -1.0,
        -1.0,
        0.0,
        -1.0
      ],
      "type": "VEC4"
    },
    {
      "bufferView": 1,
      "byteOffset": 12144,
      "componentType": 5126,
      "count": 36,
      "max": [
        0.7641688585281372,
        0.9851239919662476
      ],
      "min": [
        0.5554365515708923,
        0.36845993995666504
      ],
      "type": "VEC2"
    },
    {
      "bufferView": 1,
      "byteOffset": 12432,
      "componentType": 5126,
      "count": 36,
      "max": [
        0.7641688585281372,
        0.9851239919662476
      ],
      "min": [
        0.5554365515708923,
        0.36845993995666504
      ],
      "type": "VEC2"
    },
    {
      "bufferView": 1,
      "byteOffset": 12720,
      "componentType": 5126,
      "count": 36,
      "max": [
        0.7641688585281372,
        0.9851239919662476
      ],
      "min": [
        0.5554365515708923,
        0.36845993995666504
      ],
      "type": "VEC2"
    },
    {
      "bufferView": 0,
      "byteOffset": 4944,
      "componentType": 5125,
      "count": 60,
      "type": "SCALAR"
    },
    {
      "bufferView": 2,
      "byteOffset": 13008,
      "componentType": 5126,
      "count": 36,
      "max": [
        0.19999980926513672,
        0.05000016465783119,
        4.0
      ],
      "min": [
        -0.20000028610229492,
        -0.050000302493572235,
        0.0
      ],
      "type": "VEC3"
    },
    {
      "bufferView": 2,
      "byteOffset": 13440,
      "componentType": 5126,
      "count": 36,
      "max": [
        1.0,
        1.0,
        1.0
      ],
      "min": [
        -1.0,
        -1.0,
        -1.0
      ],
      "type": "VEC3"
    },
    {
      "bufferView": 3,
      "byteOffset": 8672,
      "componentType": 5126,
      "count": 36,
      "max": [
        1.0,
        1.0,
        0.0,
        1.0
      ],
      "min": [
        -1.0,
        0.0,
        0.0,
        -1.0
      ],
      "type": "VEC4"
    },
    {
      "bufferView": 1,
      "byteOffset": 13008,
      "componentType": 5126,
      "count": 36,
      "max": [
        0.26680806279182434,
        0.9851239919662476
      ],
      "min": [
        0.005892749410122633,
        0.37221091985702515
      ],
      "type": "VEC2"
    },
    {
      "bufferView": 1,
      "byteOffset": 13296,
      "componentType": 5126,
      "count": 36,
      "max": [
        0.26680806279182434,
        0.9851239919662476
      ],
      "min": [
        0.005892749410122633,
        0.37221091985702515
      ],
      "type": "VEC2"
    },
    {
      "bufferView": 1,
      "byteOffset": 13584,
      "componentType": 5126,
      "count": 36,
      "max": [
        0.26680806279182434,
        0.9851239919662476
      ],
      "min": [
        0.005892749410122633,
        0.37221091985702515
      ],
      "type": "VEC2"
    },
    {
      "bufferView": 0,
      "byteOffset": 5184,
      "componentType": 5125,
      "count": 60,
      "type": "SCALAR"
    },
    {
      "bufferView": 2,
      "byteOffset": 13872,
      "componentType": 5126,
      "count": 36,
      "max": [
        0.10000038146972656,
        0.10000016540288925,
        3.999999761581421
      ],
      "min": [
        -0.09999942779541016,
        -0.1000003069639206,
        0.0
      ],
      "type": "VEC3"
    },
    {
      "bufferView": 2,
      "byteOffset": 14304,
      "componentType": 5126,
      "count": 36,
      "max": [
        1.0,
        1.0,
        1.0
      ],
      "min": [
        -1.0,
        -1.0,
        -1.0
      ],
      "type": "VEC3"
    },
    {
      "bufferView": 3,
      "byteOffset": 9248,
      "componentType": 5126,
      "count": 36,
      "max": [
        1.0,
        1.0,
        2.9934309964119166e-07,
        1.0
      ],
      "min": [
        -1.0,
        -1.0,
        -2.9934309964119166e-07,
        -1.0
      ],
      "type": "VEC4"
    },
    {
      "bufferView": 1,
      "byteOffset": 13872,
      "componentType": 5126,
      "count": 36,
      "max": [
        0.9899036884307861,
        0.9851239919662476
      ],
      "min": [
        0.6895753741264343,
        0.37079504132270813
      ],
      "type": "VEC2"
    },
    {
      "bufferView": 1,
      "byteOffset": 14160,
      "componentType": 5126,
      "count": 36,
      "max": [
        0.9899036884307861,
        0.9851239919662476
      ],
      "min": [
        0.6895753741264343,
        0.37079504132270813
      ],
      "type": "VEC2"
    },
    {
      "bufferView": 1,
      "byteOffset": 14448,
      "componentType": 5126,
      "count": 36,
      "max": [
        0.9899036884307861,
        0.9851239919662476
      ],
      "min": [
        0.6895753741264343,
        0.37079504132270813
      ],
      "type": "VEC2"
    },
    {
      "bufferView": 0,
      "byteOffset": 5424,
      "componentType": 5125,
      "count": 60,
      "type": "SCALAR"
    },
    {
      "bufferView": 2,
      "byteOffset": 14736,
      "componentType": 5126,
      "count": 38,
      "max": [
        0.10000038146972656,
        0.10000014305114746,
        4.0
      ],
      "min": [
        -0.09999990463256836,
        -0.10000026226043701,
        0.0
      ],
      "type": "VEC3"
    },
    {
      "bufferView": 2,
      "byteOffset": 15192,
      "componentType": 5126,
      "count": 38,
      "max": [
        1.0,
        1.0,
        1.0
      ],
      "min": [
        -1.0,
        -1.0,
        -1.0
      ],
      "type": "VEC3"
    },
    {
      "bufferView": 3,
      "byteOffset": 9824,
      "componentType": 5126,
      "count": 38,
      "max": [
        1.0,
        1.0,
        7.131724828468577e-07,
        1.0
      ],
      "min": [
        -1.0,
        -1.0,
        -7.131724828468577e-07,
        -1.0
      ],
      "type": "VEC4"
    },
    {
      "bufferView": 1,
      "byteOffset": 14736,
      "componentType": 5126,
      "count": 38,
      "max": [
        0.7641688585281372,
        0.9851239919662476
      ],
      "min": [
        0.554909348487854,
        0.36845993995666504
      ],
      "type": "VEC2"
    },
    {
      "bufferView": 1,
      "byteOffset": 15040,
      "componentType": 5126,
      "count": 38,
      "max": [
        0.7641688585281372,
        0.9851239919662476
      ],
      "min": [
        0.554909348487854,
        0.36845993995666504
      ],
      "type": "VEC2"
    },
    {
      "bufferView": 1,
      "byteOffset": 15344,
      "componentType": 5126,
      "count": 38,
      "max": [
        0.7641688585281372,
        0.9851239919662476
      ],
      "min": [
        0.554909348487854,
        0.36845993995666504
      ],
      "type": "VEC2"
    },
    {
      "bufferView": 0,
      "byteOffset": 5664,
      "componentType": 5125,
      "count": 60,
      "type": "SCALAR"
    },
    {
      "bufferView": 2,
      "byteOffset": 15648,
      "componentType": 5126,
      "count": 83,
      "max": [
        0.09999990463256836,
        0.10000015050172806,
        3.999999761581421
      ],
      "min": [
        -0.10000014305114746,
        -0.10000025480985641,
        0.0
      ],
      "type": "VEC3"
    },
    {
      "bufferView": 2,
      "byteOffset": 16644,
      "componentType": 5126,
      "count": 83,
      "max": [
        1.0,
        1.0,
        1.0
      ],
      "min": [
        -1.0,
        -1.0,
        -1.0
      ],
      "type": "VEC3"
    },
    {
      "bufferView": 3,
      "byteOffset": 10432,
      "componentType": 5126,
      "count": 83,
      "max": [
        1.0,
        0.38268399238586426,
        1.0,
        1.0
      ],
      "min": [
        -0.7071074843406677,
        -1.0,
        -1.0,
        -1.0
      ],
      "type": "VEC4"
    },
    {
      "bufferView": 1,
      "byteOffset": 15648,
      "componentType": 5126,
      "count": 83,
      "max": [
        0.9641880393028259,
        0.378181129693985
      ],
      "min": [
        0.004603386390954256,
        0.008444893173873425
      ],
      "type": "VEC2"
    },
    {
      "bufferView": 1,
      "byteOffset": 16312,
      "componentType": 5126,
      "count": 83,
      "max": [
        0.9641880393028259,
        0.378181129693985
      ],
      "min": [
        0.004603386390954256,
        0.008444893173873425
      ],
      "type": "VEC2"
    },
    {
      "bufferView": 1,
      "byteOffset": 16976,
      "componentType": 5126,
      "count": 83,
      "max": [
        0.9641880393028259,
        0.378181129693985
      ],
      "min": [
        0.004603386390954256,
        0.008444893173873425
      ],
      "type": "VEC2"
    },
    {
      "bufferView": 0,
      "byteOffset": 5904,
      "componentType": 5125,
      "count": 276,
      "type": "SCALAR"
    },
    {
      "bufferView": 2,
      "byteOffset": 17640,
      "componentType": 5126,
      "count": 83,
      "max": [
        0.09999966621398926,
        0.10000015795230865,
        3.999999761581421
      ],
      "min": [
        -0.10000061988830566,
        -0.10000025480985641,
        0.0
      ],
      "type": "VEC3"
    },
    {
      "bufferView": 2,
      "byteOffset": 18636,
      "componentType": 5126,
      "count": 83,
      "max": [
        1.0,
        1.0,
        1.0
      ],
      "min": [
        -1.0,
        -1.0,
        -1.0
      ],
      "type": "VEC3"
    },
    {
      "bufferView": 3,
      "byteOffset": 11760,
      "componentType": 5126,
      "count": 83,
      "max": [
        0.984168291091919,
        0.33852532505989075,
        1.0,
        1.0
      ],
      "min": [
        -1.0,
        -1.0,
        -1.0,
        -1.0
      ],
      "type": "VEC4"
    },
    {
      "bufferView": 1,
      "byteOffset": 17640,
      "componentType": 5126,
      "count": 83,
      "max": [
        0.9649361371994019,
        0.4441577196121216
      ],
      "min": [
        0.5051450729370117,
        0.00844489224255085
      ],
      "type": "VEC2"
    },
    {
      "bufferView": 1,
      "byteOffset": 18304,
      "componentType": 5126,
      "count": 83,
      "max": [
        0.9649361371994019,
        0.4441577196121216
      ],
      "min": [
        0.5051450729370117,
        0.00844489224255085
      ],
      "type": "VEC2"
    },
    {
      "bufferView": 1,
      "byteOffset": 18968,
      "componentType": 5126,
      "count": 83,
      "max": [
        0.9649361371994019,
        0.4441577196121216
      ],
      "min": [
        0.5051450729370117,
        0.00844489224255085
      ],
      "type": "VEC2"
    },
    {
      "bufferView": 0,
      "byteOffset": 7008,
      "componentType": 5125,
      "count": 276,
      "type": "SCALAR"
    },
    {
      "bufferView": 2,
      "byteOffset": 19632,
      "componentType": 5126,
      "count": 36,
      "max": [
        0.10000014305114746,
        0.1000000387430191,
        1.0000009536743164
      ],
      "min": [
        -0.09999990463256836,
        -0.10000003129243851,
        0.0
      ],
      "type": "VEC3"
    },
    {
      "bufferView": 2,
      "byteOffset": 20064,
      "componentType": 5126,
      "count": 36,
      "max": [
        1.0,
        1.0,
        1.0
      ],
      "min": [
        -1.0,
        -1.0,
        -1.0
      ],
      "type": "VEC3"
    },
    {
      "bufferView": 3,
      "byteOffset": 13088,
      "componentType": 5126,
      "count": 36,
      "max": [
        1.0,
        1.0,
        0.0,
        1.0
      ],
      "min": [
        -1.0,
        -1.0,
        0.0,
        -1.0
      ],
      "type": "VEC4"
    },
    {
      "bufferView": 1,
      "byteOffset": 19632,
      "componentType": 5126,
      "count": 36,
      "max": [
        0.9899036884307861,
        0.9851239919662476
      ],
      "min": [
        0.6895753741264343,
        0.37079504132270813
      ],
      "type": "VEC2"
    },
    {
      "bufferView": 1,
      "byteOffset": 19920,
      "componentType": 5126,
      "count": 36,
      "max": [
        0.9899036884307861,
        0.9851239919662476
      ],
      "min": [
        0.6895753741264343,
        0.37079504132270813
      ],
      "type": "VEC2"
    },
    {
      "bufferView": 1,
      "byteOffset": 20208,
      "componentType": 5126,
      "count": 36,
      "max": [
        0.9899036884307861,
        0.9851239919662476
      ],
      "min": [
        0.6895753741264343,
        0.37079504132270813
      ],
      "type": "VEC2"
    },
    {
      "bufferView": 0,
      "byteOffset": 8112,
      "componentType": 5125,
      "count": 60,
      "type": "SCALAR"
    }
  ],
  "asset": {
    "extras": {
      "author": "Pasindu.Anjana (https://sketchfab.com/Pasindu.Anjana)",
      "license": "CC-BY-4.0 (http://creativecommons.org/licenses/by/4.0/)",
      "source": "https://sketchfab.com/3d-models/stylized-wood-pack-4859a76994cc49e2ba451d204e24574d",
      "title": "Stylized Wood Pack"
    },
    "generator": "Sketchfab-15.10.0",
    "version": "2.0"
  },
  "bufferViews": [
    {
      "buffer": 0,
      "byteLength": 8352,
      "name": "floatBufferViews",
      "target": 34963
    },
    {
      "buffer": 0,
      "byteLength": 20496,
      "byteOffset": 8352,
      "byteStride": 8,
      "name": "floatBufferViews",
      "target": 34962
    },
    {
      "buffer": 0,
      "byteLength": 20496,
      "byteOffset": 28848,
      "byteStride": 12,
      "name": "floatBufferViews",
      "target": 34962
    },
    {
      "buffer": 0,
      "byteLength": 13664,
      "byteOffset": 49344,
      "byteStride": 16,
      "name": "floatBufferViews",
      "target": 34962
    }
  ],
  "buffers": [
    {
      "byteLength": 63008,
      "uri": "scene.bin"
    }
  ],
  "images": [
    {
      "uri": "textures/WoodPack_baseColor.png"
    },
    {
      "uri": "textures/WoodPack_metallicRoughness.png"
    },
    {
      "uri": "textures/WoodPack_normal.png"
    }
  ],
  "materials": [
    {
      "name": "WoodPack",
      "normalTexture": {
        "index": 2
      },
      "pbrMetallicRoughness": {
        "baseColorTexture": {
          "index": 0
        },
        "metallicFactor": 0.0,
        "metallicRoughnessTexture": {
          "index": 1
        }
      }
    }
  ],
  "meshes": [
    {
      "name": "woodPlankS1_WoodPack_0",
      "primitives": [
        {
          "attributes": {
            "NORMAL": 1,
            "POSITION": 0,
            "TANGENT": 2,
            "TEXCOORD_0": 3,
            "TEXCOORD_1": 4,
            "TEXCOORD_2": 5
          },
          "indices": 6,
          "material": 0,
          "mode": 4
        }
      ]
    },
    {
      "name": "woodRoundS1_WoodPack_0",
      "primitives": [
        {
          "attributes": {
            "NORMAL": 8,
            "POSITION": 7,
            "TANGENT": 9,
            "TEXCOORD_0": 10,
            "TEXCOORD_1": 11,
            "TEXCOORD_2": 12
          },
          "indices": 13,
          "material": 0,
          "mode": 4
        }
      ]
    },
    {
      "name": "woodS1_WoodPack_0",
      "primitives": [
        {
          "attributes": {
            "NORMAL": 15,
            "POSITION": 14,
            "TANGENT": 16,
            "TEXCOORD_0": 17,
            "TEXCOORD_1": 18,
            "TEXCOORD_2": 19
          },
          "indices": 20,
          "material": 0,
          "mode": 4
        }
      ]
    },
    {
      "name": "woodPlankS2_WoodPack_0",
      "primitives": [
        {
          "attributes": {
            "NORMAL": 22,
            "POSITION": 21,
            "TANGENT": 23,
            "TEXCOORD_0": 24,
            "TEXCOORD_1": 25,
            "TEXCOORD_2": 26
          },
          "indices": 27,
          "material": 0,
          "mode": 4
        }
      ]
    },
    {
      "name": "woodRoundS2_WoodPack_0",
      "primitives": [
        {
          "attributes": {
            "NORMAL": 29,
            "POSITION": 28,
            "TANGENT": 30,
            "TEXCOORD_0": 31,
            "TEXCOORD_1": 32,
            "TEXCOORD_2": 33
          },
          "indices": 34,
          "material": 0,
          "mode": 4
        }
      ]
    },
    {
      "name": "woodS2_WoodPack_0",
      "primitives": [
        {
          "attributes": {
            "NORMAL": 36,
            "POSITION": 35,
            "TANGENT": 37,
            "TEXCOORD_0": 38,
            "TEXCOORD_1": 39,
            "TEXCOORD_2": 40
          },
          "indices": 41,
          "material": 0,
          "mode": 4
        }
      ]
    },
    {
      "name": "woodRoundL3_WoodPack_0",
      "primitives": [
        {
          "attributes": {
            "NORMAL": 43,
            "POSITION": 42,
            "TANGENT": 44,
            "TEXCOORD_0": 45,
            "TEXCOORD_1": 46,
            "TEXCOORD_2": 47
          },
          "indices": 48,
          "material": 0,
          "mode": 4
        }
      ]
    },
    {
      "name": "woodRoundL4_WoodPack_0",
      "primitives": [
        {
          "attributes": {
            "NORMAL": 50,
            "POSITION": 49,
            "TANGENT": 51,
            "TEXCOORD_0": 52,
            "TEXCOORD_1": 53,
            "TEXCOORD_2": 54
          },
          "indices": 55,
          "material": 0,
          "mode": 4
        }
      ]
    },
    {
      "name": "woodPlankL1_WoodPack_0",
      "primitives": [
        {
          "attributes": {
            "NORMAL": 57,
            "POSITION": 56,
            "TANGENT": 58,
            "TEXCOORD_0": 59,
            "TEXCOORD_1": 60,
            "TEXCOORD_2": 61
          },
          "indices": 62,
          "material": 0,
          "mode": 4
        }
      ]
    },
    {
      "name": "WoodL1_WoodPack_0",
      "primitives": [
        {
          "attributes": {
            "NORMAL": 64,
            "POSITION": 63,
            "TANGENT": 65,
            "TEXCOORD_0": 66,
            "TEXCOORD_1": 67,
            "TEXCOORD_2": 68
          },
          "indices": 69,
          "material": 0,
          "mode": 4
        }
      ]
    },
    {
      "name": "woodPlankL2_WoodPack_0",
      "primitives": [
        {
          "attributes": {
            "NORMAL": 71,
            "POSITION": 70,
            "TANGENT": 72,
            "TEXCOORD_0": 73,
            "TEXCOORD_1": 74,
            "TEXCOORD_2": 75
          },
          "indices": 76,
          "material": 0,
          "mode": 4
        }
      ]
    },
    {
      "name": "WoodL2_WoodPack_0",
      "primitives": [
        {
          "attributes": {
            "NORMAL": 78,
            "POSITION": 77,
            "TANGENT": 79,
            "TEXCOORD_0": 80,
            "TEXCOORD_1": 81,
            "TEXCOORD_2": 82
          },
          "indices": 83,
          "material": 0,
          "mode": 4
        }
      ]
    },
    {
      "name": "woodPlankL3_WoodPack_0",
      "primitives": [
        {
          "attributes": {
            "NORMAL": 85,
            "POSITION": 84,
            "TANGENT": 86,
            "TEXCOORD_0": 87,
            "TEXCOORD_1": 88,
            "TEXCOORD_2": 89
          },
          "indices": 90,
          "material": 0,
          "mode": 4
        }
      ]
    },
    {
      "name": "WoodL3_WoodPack_0",
      "primitives": [
        {
          "attributes": {
            "NORMAL": 92,
            "POSITION": 91,
            "TANGENT": 93,
            "TEXCOORD_0": 94,
            "TEXCOORD_1": 95,
            "TEXCOORD_2": 96
          },
          "indices": 97,
          "material": 0,
          "mode": 4
        }
      ]
    },
    {
      "name": "WoodL4_WoodPack_0",
      "primitives": [
        {
          "attributes": {
            "NORMAL": 99,
            "POSITION": 98,
            "TANGENT": 100,
            "TEXCOORD_0": 101,
            "TEXCOORD_1": 102,
            "TEXCOORD_2": 103
          },
          "indices": 104,
          "material": 0,
          "mode": 4
        }
      ]
    },
    {
      "name": "woodRoundL1_WoodPack_0",
      "primitives": [
        {
          "attributes": {
            "NORMAL": 106,
            "POSITION": 105,
            "TANGENT": 107,
            "TEXCOORD_0": 108,
            "TEXCOORD_1": 109,
            "TEXCOORD_2": 110
          },
          "indices": 111,
          "material": 0,
          "mode": 4
        }
      ]
    },
    {
      "name": "woodRoundL2_WoodPack_0",
      "primitives": [
        {
          "attributes": {
            "NORMAL": 113,
            "POSITION": 112,
            "TANGENT": 114,
            "TEXCOORD_0": 115,
            "TEXCOORD_1": 116,
            "TEXCOORD_2": 117
          },
          "indices": 118,
          "material": 0,
          "mode": 4
        }
      ]
    },
    {
      "name": "WoodES_WoodPack_0",
      "primitives": [
        {
          "attributes": {
            "NORMAL": 120,
            "POSITION": 119,
            "TANGENT": 121,
            "TEXCOORD_0": 122,
            "TEXCOORD_1": 123,
            "TEXCOORD_2": 124
          },
          "indices": 125,
          "material": 0,
          "mode": 4
        }
      ]
    }
  ],
  "nodes": [
    {
      "children": [
        1
      ],
      "matrix": [
        1.0,
        0.0,
        0.0,
        0.0,
        0.0,
        2.220446049250313e-16,
        -1.0,
        0.0,
        0.0,
        1.0,
        2.220446049250313e-16,
        0.0,
        0.0,
        0.0,
        0.0,
        1.0
      ],
      "name": "Sketchfab_model"
    },
    {
      "children": [
        2
      ],
      "matrix": [
        0.009999999776482582,
        0.0,
        0.0,
        0.0,
        0.0,
        0.0,
        0.009999999776482582,
        0.0,
        0.0,
        -0.009999999776482582,
        0.0,
        0.0,
        0.0,
        0.0,
        0.0,
        1.0
      ],
      "name": "16e23c0b430a4ea3ad0cb2dbed0b83fe.fbx"
    },
    {
      "children": [
        3,
        5,
        7,
        9,
        11,
        13,
        15,
        17,
        19,
        21,
        23,
        25,
        27,
        29,
        31,
        33,
        35,
        37
      ],
      "name": "RootNode"
    },
    {
      "children": [
        4
      ],
      "matrix": [
        100.0,
        0.0,
        0.0,
        0.0,
        -0.0,
        -1.629206793918314e-05,
        -99.99999999999868,
        0.0,
        0.0,
        99.99999999999868,
        -1.629206793918314e-05,
        0.0,
        -180.00001525878906,
        0.0,
        0.0,
        1.0
      ],
      "name": "woodPlankS1"
    },
    {
      "mesh": 0,
      "name": "woodPlankS1_WoodPack_0"
    },
    {
      "children": [
        6
      ],
      "matrix": [
        100.0,
        0.0,
        0.0,
        0.0,
        -0.0,
        -1.629206793918314e-05,
        -99.99999999999868,
        0.0,
        0.0,
        99.99999999999868,
        -1.629206793918314e-05,
        0.0,
        -80.00000762939453,
        0.0,
        -1.0710209608078003e-06,
        1.0
      ],
      "name": "woodRoundS1"
    },
    {
      "mesh": 1,
      "name": "woodRoundS1_WoodPack_0"
    },
    {
      "children": [
        8
      ],
      "matrix": [
        100.0,
        0.0,
        0.0,
        0.0,
        -0.0,
        -1.629206793918314e-05,
        -99.99999999999868,
        0.0,
        0.0,
        99.99999999999868,
        -1.629206793918314e-05,
        0.0,
        -10.000011444091797,
        -2.384185791015625e-05,
        0.0,
        1.0
      ],
      "name": "woodS1"
    },
    {
      "mesh": 2,
      "name": "woodS1_WoodPack_0"
    },
    {
      "children": [
        10
      ],
      "matrix": [
        100.0,
        0.0,
        0.0,
        0.0,
        -0.0,
        -1.629206793918314e-05,
        -99.99999999999868,
        0.0,
        0.0,
        99.99999999999868,
        -1.629206793918314e-05,
        0.0,
        -130.0,
        0.0,
        0.0,
        1.0
      ],
      "name": "woodPlankS2"
    },
    {
      "mesh": 3,
      "name": "woodPlankS2_WoodPack_0"
    },
    {
      "children": [
        12
      ],
      "matrix": [
        100.0,
        0.0,
        0.0,
        0.0,
        -0.0,
        -1.629206793918314e-05,
        -99.99999999999868,
        0.0,
        0.0,
        99.99999999999868,
        -1.629206793918314e-05,
        0.0,
        -50.0,
        0.0,
        -1.0710209608078003e-06,
        1.0
      ],
      "name": "woodRoundS2"
    },
    {
      "mesh": 4,
      "name": "woodRoundS2_WoodPack_0"
    },
    {
      "children": [
        14
      ],
      "matrix": [
        100.0,
        0.0,
        0.0,
        0.0,
        0.0,
        -1.629206793918314e-05,
        -99.99999999999868,
        0.0,
        0.0,
        99.99999999999868,
        -1.629206793918314e-05,
        0.0,
        19.99997901916504,
        -2.384185791015625e-05,
        0.0,
        1.0
      ],
      "name": "woodS2"
    },
    {
      "mesh": 5,
      "name": "woodS2_WoodPack_0"
    },
    {
      "children": [
        16
      ],
      "matrix": [
        100.0,
        0.0,
        0.0,
        0.0,
        0.0,
        -1.629206793918314e-05,
        -99.99999999999868,
        0.0,
        0.0,
        99.99999999999868,
        -1.629206793918314e-05,
        0.0,
        120.00006103515625,
        0.0,
        -2.9802322387695313e-06,
        1.0
      ],
      "name": "woodRoundL3"
    },
    {
      "mesh": 6,
      "name": "woodRoundL3_WoodPack_0"
    },
    {
      "children": [
        18
      ],
      "matrix": [
        100.0,
        0.0,
        0.0,
        0.0,
        0.0,
        -1.629206793918314e-05,
        -99.99999999999868,
        0.0,
        0.0,
        99.99999999999868,
        -1.629206793918314e-05,
        0.0,
        150.00003051757813,
        0.0,
        -2.8560559712786926e-06,
        1.0
      ],
      "name": "woodRoundL4"
    },
    {
      "mesh": 7,
      "name": "woodRoundL4_WoodPack_0"
    },
    {
      "children": [
        20
      ],
      "matrix": [
        100.0,
        0.0,
        0.0,
        0.0,
        0.0,
        -1.629206793918314e-05,
        -99.99999999999868,
        0.0,
        0.0,
        99.99999999999868,
        -1.629206793918314e-05,
        0.0,
        199.99998474121094,
        0.0,
        -1.614292500562442e-06,
        1.0
      ],
      "name": "woodPlankL1"
    },
    {
      "mesh": 8,
      "name": "woodPlankL1_WoodPack_0"
    },
    {
      "children": [
        22
      ],
      "matrix": [
        100.0,
        0.0,
        0.0,
        0.0,
        0.0,
        -1.629206793918314e-05,
        -99.99999999999868,
        0.0,
        0.0,
        99.99999999999868,
        -1.629206793918314e-05,
        0.0,
        350.0000305175781,
        -2.384185791015625e-05,
        -1.7384688817401184e-06,
        1.0
      ],
      "name": "WoodL1"
    },
    {
      "mesh": 9,
      "name": "WoodL1_WoodPack_0"
    },
    {
      "children": [
        24
      ],
      "matrix": [
        100.0,
        0.0,
        0.0,
        0.0,
        0.0,
        -1.629206793918314e-05,
        -99.99999999999868,
        0.0,
        0.0,
        99.99999999999868,
        -1.629206793918314e-05,
        0.0,
        249.99996948242188,
        0.0,
        -8.319815606228076e-06,
        1.0
      ],
      "name": "woodPlankL2"
    },
    {
      "mesh": 10,
      "name": "woodPlankL2_WoodPack_0"
    },
    {
      "children": [
        26
      ],
      "matrix": [
        100.0,
        0.0,
        0.0,
        0.0,
        0.0,
        -1.629206793918314e-05,
        -99.99999999999868,
        0.0,
        0.0,
        99.99999999999868,
        -1.629206793918314e-05,
        0.0,
        380.0,
        -2.384185791015625e-05,
        -1.7384688817401184e-06,
        1.0
      ],
      "name": "WoodL2"
    },
    {
      "mesh": 11,
      "name": "WoodL2_WoodPack_0"
    },
    {
      "children": [
        28
      ],
      "matrix": [
        100.0,
        0.0,
        0.0,
        0.0,
        0.0,
        -1.629206793918314e-05,
        -99.99999999999868,
        0.0,
        0.0,
        99.99999999999868,
        -1.629206793918314e-05,
        0.0,
        300.0000915527344,
        0.0,
        -8.319815606228076e-06,
        1.0
      ],
      "name": "woodPlankL3"
    },
    {
      "mesh": 12,
      "name": "woodPlankL3_WoodPack_0"
    },
    {
      "children": [
        30
      ],
      "matrix": [
        100.0,
        0.0,
        0.0,
        0.0,
        0.0,
        -1.629206793918314e-05,
        -99.99999999999868,
        0.0,
        0.0,
        99.99999999999868,
        -1.629206793918314e-05,
        0.0,
        410.0,
        -2.384185791015625e-05,
        -8.195638656616211e-06,
        1.0
      ],
      "name": "WoodL3"
    },
    {
      "mesh": 13,
      "name": "WoodL3_WoodPack_0"
    },
    {
      "children": [
        32
      ],
      "matrix": [
        100.0,
        0.0,
        0.0,
        0.0,
        0.0,
        -1.629206793918314e-05,
        -99.99999999999868,
        0.0,
        0.0,
        99.99999999999868,
        -1.629206793918314e-05,
        0.0,
        440.0,
        -0.00019073486328125,
        -1.043081283569336e-05,
        1.0
      ],
      "name": "WoodL4"
    },
    {
      "mesh": 14,
      "name": "WoodL4_WoodPack_0"
    },
    {
      "children": [
        34
      ],
      "matrix": [
        100.0,
        0.0,
        0.0,
        0.0,
        0.0,
        -1.629206793918314e-05,
        -99.99999999999868,
        0.0,
        0.0,
        99.99999999999868,
        -1.629206793918314e-05,
        0.0,
        60.000083923339844,
        0.0,
        -9.592622518539429e-06,
        1.0
      ],
      "name": "woodRoundL1"
    },
    {
      "mesh": 15,
      "name": "woodRoundL1_WoodPack_0"
    },
    {
      "children": [
        36
      ],
      "matrix": [
        100.0,
        0.0,
        0.0,
        0.0,
        0.0,
        -1.629206793918314e-05,
        -99.99999999999868,
        0.0,
        0.0,
        99.99999999999868,
        -1.629206793918314e-05,
        0.0,
        90.00012969970703,
        0.0,
        -9.220093488693237e-06,
        1.0
      ],
      "name": "woodRoundL2"
    },
    {
      "mesh": 16,
      "name": "woodRoundL2_WoodPack_0"
    },
    {
      "children": [
        38
      ],
      "matrix": [
        100.0,
        0.0,
        0.0,
        0.0,
        -0.0,
        -1.629206793918314e-05,
        -99.99999999999868,
        0.0,
        0.0,
        99.99999999999868,
        -1.629206793918314e-05,
        0.0,
        -230.0,
        0.0,
        0.0,
        1.0
      ],
      "name": "WoodES"
    },
    {
      "mesh": 17,
      "name": "WoodES_WoodPack_0"
    }
  ],
  "samplers": [
    {
      "magFilter": 9729,
      "minFilter": 9987,
      "wrapS": 10497,
      "wrapT": 10497
    }
  ],
  "scene": 0,
  "scenes": [
    {
      "name": "Sketchfab_Scene",
      "nodes": [
        0
      ]
    }
  ],
  "textures": [
    {
      "sampler": 0,
      "source": 0
    },
    {
      "sampler": 0,
      "source": 1
    },
    {
      "sampler": 0,
      "source": 2
    }
  ]
}
